<?xml version="1.0" encoding="utf-8"?>
<!-- Generator: Adobe Illustrator 27.4.1, SVG Export Plug-In . SVG Version: 6.00 Build 0)  -->
<svg version="1.1" id="Layer_1" xmlns="http://www.w3.org/2000/svg" xmlns:xlink="http://www.w3.org/1999/xlink" x="0px" y="0px"
	 viewBox="0 0 241.5 84.3" style="enable-background:new 0 0 241.5 84.3;" xml:space="preserve">
<style type="text/css">
	.st0{fill:url(#SVGID_1_);}
	.st1{fill:#FFFFFF;filter:url(#Adobe_OpacityMaskFilter);}
	.st2{fill:#010202;}
	.st3{mask:url(#path-1-outside-1_51_1168_00000045598620583569235380000012197185935380112004_);fill:#243041;}
</style>
<linearGradient id="SVGID_1_" gradientUnits="userSpaceOnUse" x1="121.277" y1="81.4209" x2="121.277" y2="-13.0268" gradientTransform="matrix(1 0 0 -1 0.1378 83.7881)">
	<stop  offset="0" style="stop-color:#75B1E1"/>
	<stop  offset="1" style="stop-color:#FFFFFF"/>
</linearGradient>
<path class="st0" d="M43.2,9c-2.4,7.8-4.7,15.6-6.9,23.5c-2.1,7.9-4.1,15.5-6,22.9v2.8c0,1.5,0,3,0,4.4c0.1,1.3,0.1,2.7,0.2,4
	c0.1,1.3,0.1,2.7,0.2,4.1c0.1,1.4,0.3,2.8,0.4,4.4h-11c0.2-1.9,0.5-3.7,0.6-5.3c0.2-1.7,0.3-3.3,0.4-4.9c0.1-1.6,0.2-3.2,0.3-4.9
	c0.1-1.7,0.1-3.5,0.1-5.5c-0.9-3.5-1.8-7.2-2.7-11C18,39.9,17,36,16,32.2c-1-3.8-2-7.6-2.9-11.4c-1-3.8-1.9-7.5-2.9-11l11.5-1
	c0.1,2.5,0.3,5.2,0.6,8c0.3,2.8,0.7,5.6,1.1,8.5c0.4,2.9,0.8,5.8,1.3,8.8c0.5,3,1,5.9,1.5,8.7c0.6-2.9,1.1-5.9,1.7-8.9
	c0.6-3,1.1-6,1.6-9s0.9-5.8,1.3-8.6c0.4-2.8,0.8-5.4,1.1-7.8L43.2,9z M70.2,48.5c0,3.7-0.2,7-0.5,9.8c-0.3,2.8-0.8,5.3-1.5,7.3
	c-0.6,2.1-1.4,3.8-2.2,5.1c-0.9,1.3-1.8,2.4-2.9,3.3c-1,0.8-2.2,1.4-3.4,1.7c-1.2,0.3-2.5,0.5-3.8,0.5c-1.3,0-2.5-0.1-3.7-0.4
	c-1.2-0.3-2.2-0.8-3.3-1.5c-1-0.7-1.9-1.7-2.8-3c-0.8-1.3-1.5-2.9-2.1-4.8c-0.6-2-1-4.3-1.4-7c-0.3-2.7-0.5-5.9-0.5-9.6
	c0-5.5,0.4-10,1.2-13.5c0.8-3.5,1.9-6.3,3.2-8.3c1.3-2.1,2.8-3.5,4.5-4.2c1.7-0.8,3.4-1.2,5.2-1.2c1.1,0,2.3,0.1,3.4,0.4
	c1.2,0.2,2.2,0.7,3.3,1.3c1,0.7,2,1.6,2.9,2.8c0.9,1.2,1.7,2.8,2.3,4.7c0.6,1.9,1.1,4.2,1.5,6.9C70,41.6,70.2,44.8,70.2,48.5z
	 M60.3,48.9c0-2.9-0.1-5.3-0.3-7.2c-0.2-1.9-0.5-3.4-0.9-4.5c-0.4-1.1-0.8-1.9-1.3-2.2c-0.5-0.4-1.1-0.6-1.7-0.6
	c-0.7,0-1.3,0.3-1.8,0.9c-0.5,0.6-1,1.5-1.3,2.8c-0.3,1.3-0.6,3-0.8,5.1c-0.2,2.1-0.3,4.6-0.3,7.5c0,3,0.1,5.5,0.3,7.5
	c0.2,2,0.6,3.5,1,4.7c0.4,1.2,0.9,2,1.5,2.5c0.6,0.5,1.2,0.7,1.8,0.7c1.3,0,2.3-1.4,2.9-4.2C60,59.1,60.3,54.8,60.3,48.9z
	 M103.1,29.5c-0.2,4.9-0.4,9.8-0.5,14.6c-0.1,4.8-0.1,9.6-0.1,14.5c0,2.9,0,5.7,0,8.5c0,2.8,0.1,5.7,0.2,8.5L93.5,76v-5.7
	c-0.9,1.5-1.9,2.6-3.1,3.4c-1.1,0.8-2.2,1.4-3.3,1.7c-1,0.4-1.9,0.6-2.6,0.6c-0.7,0.1-1.2,0.1-1.3,0.1c-1.9-0.4-3.5-1.2-4.8-2.5
	c-1.3-1.3-2.3-2.9-3-4.9c-0.7-2-1.3-4.2-1.6-6.6c-0.3-2.4-0.5-5-0.5-7.7c0-2.3,0.1-4.7,0.3-7.1c0.2-2.4,0.4-4.8,0.7-7.1
	c0.3-2.4,0.6-4.6,0.9-6.8c0.3-2.2,0.7-4.3,1-6.2l10,0.2c-0.3,1.8-0.6,3.8-0.9,5.9c-0.3,2.1-0.5,4.3-0.8,6.5
	c-0.2,2.2-0.4,4.4-0.6,6.7c-0.1,2.2-0.2,4.3-0.2,6.3c0,1.8,0.1,3.5,0.2,5.1c0.2,1.6,0.4,3,0.7,4.2c0.3,1.2,0.8,2.1,1.3,2.8
	c0.6,0.6,1.2,1,2,1c1,0,1.9-0.6,2.6-1.9c0.7-1.3,1.2-2.9,1.6-4.9c0.4-2.1,0.7-4.3,0.8-6.9c0.2-2.5,0.2-5.1,0.2-7.7
	c0-1.9,0-3.8-0.1-5.5c-0.1-1.7-0.1-3.3-0.2-4.7c-0.1-1.6-0.2-3.1-0.3-4.5L103.1,29.5z M147.2,74.9c-1.7-0.1-3.4-0.1-5-0.1
	c-1.6,0-3.2,0-4.8,0c-2.4,0-4.7,0-7.1,0.1c-2.3,0.1-4.7,0.2-7.2,0.4c0.3-5.7,0.5-11.3,0.6-16.9c0.2-5.6,0.3-11.2,0.3-16.9
	c0-5.4-0.1-10.8-0.2-16.2c-0.1-5.4-0.4-10.8-0.7-16.2c0.3,0,0.7,0,1.1,0c0.3,0,0.7,0,1.2,0c0.5,0,1,0,1.7,0c1,0,2,0,3.2,0
	c1.2-0.1,2.3-0.1,3.5-0.2c-0.4,4.4-0.7,9-0.9,13.9c-0.2,4.9-0.3,9.8-0.3,14.8c0,5-0.1,9.9-0.1,14.9c0,4.9,0,9.7-0.1,14.3
	c2.5-0.1,4.9-0.2,7.3-0.4c2.4-0.2,4.9-0.5,7.6-0.9V74.9z M177.1,48.5c0,3.7-0.2,7-0.5,9.8c-0.3,2.8-0.8,5.3-1.5,7.3
	c-0.6,2.1-1.4,3.8-2.2,5.1c-0.9,1.3-1.8,2.4-2.9,3.3c-1,0.8-2.2,1.4-3.4,1.7c-1.2,0.3-2.5,0.5-3.8,0.5s-2.5-0.1-3.7-0.4
	c-1.2-0.3-2.2-0.8-3.3-1.5c-1-0.7-1.9-1.7-2.8-3c-0.8-1.3-1.5-2.9-2.1-4.8c-0.6-2-1-4.3-1.4-7c-0.3-2.7-0.5-5.9-0.5-9.6
	c0-5.5,0.4-10,1.2-13.5c0.8-3.5,1.9-6.3,3.2-8.3c1.3-2.1,2.8-3.5,4.5-4.2c1.7-0.8,3.4-1.2,5.2-1.2c1.1,0,2.3,0.1,3.4,0.4
	c1.2,0.2,2.2,0.7,3.3,1.3c1,0.7,2,1.6,2.9,2.8c0.9,1.2,1.7,2.8,2.3,4.7c0.6,1.9,1.1,4.2,1.5,6.9C176.9,41.6,177.1,44.8,177.1,48.5z
	 M167.2,48.9c0-2.9-0.1-5.3-0.3-7.2c-0.2-1.9-0.5-3.4-0.9-4.5c-0.4-1.1-0.8-1.9-1.3-2.2c-0.5-0.4-1.1-0.6-1.7-0.6
	c-0.7,0-1.3,0.3-1.8,0.9c-0.5,0.6-1,1.5-1.3,2.8c-0.3,1.3-0.6,3-0.8,5.1c-0.2,2.1-0.3,4.6-0.3,7.5c0,3,0.1,5.5,0.3,7.5
	c0.2,2,0.6,3.5,1,4.7c0.4,1.2,0.9,2,1.5,2.5c0.6,0.5,1.2,0.7,1.8,0.7c1.3,0,2.3-1.4,2.9-4.2S167.2,54.8,167.2,48.9z M202.6,61.1
	c0,2.7-0.5,5-1.4,6.8c-0.9,1.8-2,3.3-3.4,4.4c-1.3,1.1-2.8,1.9-4.5,2.4c-1.6,0.5-3.2,0.7-4.6,0.7c-1.1,0-2.1-0.2-3.1-0.4
	c-0.9-0.2-1.8-0.5-2.8-0.8c-1-0.4-1.9-1-2.7-1.7l0.4-10.5c1.1,0.9,2.2,1.6,3.4,2.1c1.1,0.5,2.2,0.9,3.1,1.1c1.1,0.3,2.2,0.4,3.2,0.5
	c0.9-0.5,1.5-1.1,2-1.9c0.5-0.9,0.7-1.8,0.7-2.8c0-0.9-0.2-1.8-0.6-2.8c-0.4-1-1-2-1.9-2.8c-0.9-0.9-1.9-1.9-3.1-3.1
	c-1.2-1.2-2.3-2.6-3.4-4.1c-1.1-1.5-2-3.2-2.8-5.1c-0.7-1.9-1.1-3.9-1.1-6.1c0-2.2,0.3-4.1,0.9-5.9c0.6-1.8,1.5-3.4,2.5-4.6
	c1.1-1.3,2.4-2.3,3.9-3c1.5-0.7,3.2-1.1,5-1.1c1.5,0,3.1,0.2,4.8,0.7c1.7,0.4,3.5,1.1,5.5,2.1l-0.7,10.7c-0.8-0.7-1.6-1.3-2.5-1.7
	c-0.9-0.5-1.7-0.8-2.5-1.1c-0.9-0.3-1.8-0.5-2.6-0.6c-1.2,0.2-2.2,0.8-3,1.8c-0.8,1-1.2,2.2-1.2,3.8c0,1.5,0.3,2.8,0.9,3.9
	c0.6,1.1,1.4,2.1,2.2,3.1c0.9,0.9,1.9,1.9,3,2.9c1.1,0.9,2.1,2,3,3.3c0.9,1.2,1.7,2.6,2.4,4.2C202.1,56.9,202.5,58.9,202.6,61.1z
	 M232.6,73.6c-2.8,1-5.4,1.6-7.8,1.9c-2.3,0.3-4.2,0.5-5.7,0.5c-1.9,0-3.5-0.4-4.9-1.1c-1.4-0.7-2.6-1.7-3.7-2.9
	c-1-1.2-1.9-2.6-2.5-4.2c-0.7-1.6-1.2-3.3-1.6-5.1c-0.4-1.8-0.7-3.6-0.9-5.4c-0.2-1.8-0.2-3.6-0.2-5.2c0-4,0.3-7.8,1-11.2
	c0.6-3.4,1.6-6.4,2.8-8.9c1.2-2.5,2.7-4.4,4.5-5.8c1.8-1.4,3.9-2.1,6.1-2.1c1.9,0,3.6,0.5,5.2,1.4c1.6,0.9,2.9,2.4,4,4.4
	c1.1,2,1.9,4.5,2.5,7.5c0.6,3,0.9,6.6,0.9,10.7c0,1.2,0,2.3-0.1,3.5c0,1.2-0.1,2.4-0.2,3.7l-16.2,2.2c0.1,1.1,0.3,2.2,0.6,3.2
	c0.3,1,0.6,1.9,1.1,2.7c0.5,0.8,1,1.4,1.6,1.8c0.6,0.5,1.4,0.7,2.2,0.7c1.7,0,3.3-0.1,5-0.3c1.7-0.2,3.4-0.5,5.2-0.7L232.6,73.6z
	 M215.5,49.7l7.6-1.4v-1.7c0-2.6-0.2-4.6-0.6-6c-0.4-1.4-0.8-2.5-1.3-3.2c-0.6-0.8-1.2-1.3-1.9-1.4c-0.9,0.1-1.6,0.5-2.1,1.2
	c-0.5,0.7-0.9,1.7-1.2,2.8c-0.2,1.1-0.4,2.4-0.5,3.9c-0.1,1.4-0.1,2.9-0.1,4.4V49.7z"/>
<defs>
	<filter id="Adobe_OpacityMaskFilter" filterUnits="userSpaceOnUse" x="0" y="0" width="241.5" height="84.3">
		<feColorMatrix  type="matrix" values="1 0 0 0 0  0 1 0 0 0  0 0 1 0 0  0 0 0 1 0"/>
	</filter>
</defs>
<mask maskUnits="userSpaceOnUse" x="0" y="0" width="241.5" height="84.3" id="path-1-outside-1_51_1168_00000045598620583569235380000012197185935380112004_">
	<rect x="-0.5" y="-0.2" class="st1" width="242" height="85"/>
	<path class="st2" d="M43.2,9c-2.4,7.8-4.7,15.6-6.9,23.5c-2.1,7.9-4.1,15.5-6,22.9v2.8c0,1.5,0,3,0,4.4c0.1,1.3,0.1,2.7,0.2,4
		c0.1,1.3,0.1,2.7,0.2,4.1c0.1,1.4,0.3,2.8,0.4,4.4h-11c0.2-1.9,0.5-3.7,0.6-5.3c0.2-1.7,0.3-3.3,0.4-4.9c0.1-1.6,0.2-3.2,0.3-4.9
		c0.1-1.7,0.1-3.5,0.1-5.5c-0.9-3.5-1.8-7.2-2.7-11C18,39.9,17,36,16,32.2c-1-3.8-2-7.6-2.9-11.4c-1-3.8-1.9-7.5-2.9-11l11.5-1
		c0.1,2.5,0.3,5.2,0.6,8c0.3,2.8,0.7,5.6,1.1,8.5c0.4,2.9,0.8,5.8,1.3,8.8c0.5,3,1,5.9,1.5,8.7c0.6-2.9,1.1-5.9,1.7-8.9
		c0.6-3,1.1-6,1.6-9s0.9-5.8,1.3-8.6c0.4-2.8,0.8-5.4,1.1-7.8L43.2,9z M70.2,48.5c0,3.7-0.2,7-0.5,9.8c-0.3,2.8-0.8,5.3-1.5,7.3
		c-0.6,2.1-1.4,3.8-2.2,5.1c-0.9,1.3-1.8,2.4-2.9,3.3c-1,0.8-2.2,1.4-3.4,1.7c-1.2,0.3-2.5,0.5-3.8,0.5c-1.3,0-2.5-0.1-3.7-0.4
		c-1.2-0.3-2.2-0.8-3.3-1.5c-1-0.7-1.9-1.7-2.8-3c-0.8-1.3-1.5-2.9-2.1-4.8c-0.6-2-1-4.3-1.4-7c-0.3-2.7-0.5-5.9-0.5-9.6
		c0-5.5,0.4-10,1.2-13.5c0.8-3.5,1.9-6.3,3.2-8.3c1.3-2.1,2.8-3.5,4.5-4.2c1.7-0.8,3.4-1.2,5.2-1.2c1.1,0,2.3,0.1,3.4,0.4
		c1.2,0.2,2.2,0.7,3.3,1.3c1,0.7,2,1.6,2.9,2.8c0.9,1.2,1.7,2.8,2.3,4.7c0.6,1.9,1.1,4.2,1.5,6.9C70,41.6,70.2,44.8,70.2,48.5z
		 M60.3,48.9c0-2.9-0.1-5.3-0.3-7.2c-0.2-1.9-0.5-3.4-0.9-4.5c-0.4-1.1-0.8-1.9-1.3-2.2c-0.5-0.4-1.1-0.6-1.7-0.6
		c-0.7,0-1.3,0.3-1.8,0.9c-0.5,0.6-1,1.5-1.3,2.8c-0.3,1.3-0.6,3-0.8,5.1c-0.2,2.1-0.3,4.6-0.3,7.5c0,3,0.1,5.5,0.3,7.5
		c0.2,2,0.6,3.5,1,4.7c0.4,1.2,0.9,2,1.5,2.5c0.6,0.5,1.2,0.7,1.8,0.7c1.3,0,2.3-1.4,2.9-4.2C60,59.1,60.3,54.8,60.3,48.9z
		 M103.1,29.5c-0.2,4.9-0.4,9.8-0.5,14.6c-0.1,4.8-0.1,9.6-0.1,14.5c0,2.9,0,5.7,0,8.5c0,2.8,0.1,5.7,0.2,8.5L93.5,76v-5.7
		c-0.9,1.5-1.9,2.6-3.1,3.4c-1.1,0.8-2.2,1.4-3.3,1.7c-1,0.4-1.9,0.6-2.6,0.6c-0.7,0.1-1.2,0.1-1.3,0.1c-1.9-0.4-3.5-1.2-4.8-2.5
		c-1.3-1.3-2.3-2.9-3-4.9c-0.7-2-1.3-4.2-1.6-6.6c-0.3-2.4-0.5-5-0.5-7.7c0-2.3,0.1-4.7,0.3-7.1c0.2-2.4,0.4-4.8,0.7-7.1
		c0.3-2.4,0.6-4.6,0.9-6.8c0.3-2.2,0.7-4.3,1-6.2l10,0.2c-0.3,1.8-0.6,3.8-0.9,5.9c-0.3,2.1-0.5,4.3-0.8,6.5
		c-0.2,2.2-0.4,4.4-0.6,6.7c-0.1,2.2-0.2,4.3-0.2,6.3c0,1.8,0.1,3.5,0.2,5.1c0.2,1.6,0.4,3,0.7,4.2c0.3,1.2,0.8,2.1,1.3,2.8
		c0.6,0.6,1.2,1,2,1c1,0,1.9-0.6,2.6-1.9c0.7-1.3,1.2-2.9,1.6-4.9c0.4-2.1,0.7-4.3,0.8-6.9c0.2-2.5,0.2-5.1,0.2-7.7
		c0-1.9,0-3.8-0.1-5.5c-0.1-1.7-0.1-3.3-0.2-4.7c-0.1-1.6-0.2-3.1-0.3-4.5L103.1,29.5z M147.2,74.9c-1.7-0.1-3.4-0.1-5-0.1
		c-1.6,0-3.2,0-4.8,0c-2.4,0-4.7,0-7.1,0.1c-2.3,0.1-4.7,0.2-7.2,0.4c0.3-5.7,0.5-11.3,0.6-16.9c0.2-5.6,0.3-11.2,0.3-16.9
		c0-5.4-0.1-10.8-0.2-16.2c-0.1-5.4-0.4-10.8-0.7-16.2c0.3,0,0.7,0,1.1,0c0.3,0,0.7,0,1.2,0c0.5,0,1,0,1.7,0c1,0,2,0,3.2,0
		c1.2-0.1,2.3-0.1,3.5-0.2c-0.4,4.4-0.7,9-0.9,13.9c-0.2,4.9-0.3,9.8-0.3,14.8c0,5-0.1,9.9-0.1,14.9c0,4.9,0,9.7-0.1,14.3
		c2.5-0.1,4.9-0.2,7.3-0.4c2.4-0.2,4.9-0.5,7.6-0.9V74.9z M177.1,48.5c0,3.7-0.2,7-0.5,9.8c-0.3,2.8-0.8,5.3-1.5,7.3
		c-0.6,2.1-1.4,3.8-2.2,5.1c-0.9,1.3-1.8,2.4-2.9,3.3c-1,0.8-2.2,1.4-3.4,1.7c-1.2,0.3-2.5,0.5-3.8,0.5s-2.5-0.1-3.7-0.4
		c-1.2-0.3-2.2-0.8-3.3-1.5c-1-0.7-1.9-1.7-2.8-3c-0.8-1.3-1.5-2.9-2.1-4.8c-0.6-2-1-4.3-1.4-7c-0.3-2.7-0.5-5.9-0.5-9.6
		c0-5.5,0.4-10,1.2-13.5c0.8-3.5,1.9-6.3,3.2-8.3c1.3-2.1,2.8-3.5,4.5-4.2c1.7-0.8,3.4-1.2,5.2-1.2c1.1,0,2.3,0.1,3.4,0.4
		c1.2,0.2,2.2,0.7,3.3,1.3c1,0.7,2,1.6,2.9,2.8c0.9,1.2,1.7,2.8,2.3,4.7c0.6,1.9,1.1,4.2,1.5,6.9C176.9,41.6,177.1,44.8,177.1,48.5z
		 M167.2,48.9c0-2.9-0.1-5.3-0.3-7.2c-0.2-1.9-0.5-3.4-0.9-4.5c-0.4-1.1-0.8-1.9-1.3-2.2c-0.5-0.4-1.1-0.6-1.7-0.6
		c-0.7,0-1.3,0.3-1.8,0.9c-0.5,0.6-1,1.5-1.3,2.8c-0.3,1.3-0.6,3-0.8,5.1c-0.2,2.1-0.3,4.6-0.3,7.5c0,3,0.1,5.5,0.3,7.5
		c0.2,2,0.6,3.5,1,4.7c0.4,1.2,0.9,2,1.5,2.5c0.6,0.5,1.2,0.7,1.8,0.7c1.3,0,2.3-1.4,2.9-4.2S167.2,54.8,167.2,48.9z M202.6,61.1
		c0,2.7-0.5,5-1.4,6.8c-0.9,1.8-2,3.3-3.4,4.4c-1.3,1.1-2.8,1.9-4.5,2.4c-1.6,0.5-3.2,0.7-4.6,0.7c-1.1,0-2.1-0.2-3.1-0.4
		c-0.9-0.2-1.8-0.5-2.8-0.8c-1-0.4-1.9-1-2.7-1.7l0.4-10.5c1.1,0.9,2.2,1.6,3.4,2.1c1.1,0.5,2.2,0.9,3.1,1.1
		c1.1,0.3,2.2,0.4,3.2,0.5c0.9-0.5,1.5-1.1,2-1.9c0.5-0.9,0.7-1.8,0.7-2.8c0-0.9-0.2-1.8-0.6-2.8c-0.4-1-1-2-1.9-2.8
		c-0.9-0.9-1.9-1.9-3.1-3.1c-1.2-1.2-2.3-2.6-3.4-4.1c-1.1-1.5-2-3.2-2.8-5.1c-0.7-1.9-1.1-3.9-1.1-6.1c0-2.2,0.3-4.1,0.9-5.9
		c0.6-1.8,1.5-3.4,2.5-4.6c1.1-1.3,2.4-2.3,3.9-3c1.5-0.7,3.2-1.1,5-1.1c1.5,0,3.1,0.2,4.8,0.7c1.7,0.4,3.5,1.1,5.5,2.1l-0.7,10.7
		c-0.8-0.7-1.6-1.3-2.5-1.7c-0.9-0.5-1.7-0.8-2.5-1.1c-0.9-0.3-1.8-0.5-2.6-0.6c-1.2,0.2-2.2,0.8-3,1.8c-0.8,1-1.2,2.2-1.2,3.8
		c0,1.5,0.3,2.8,0.9,3.9c0.6,1.1,1.4,2.1,2.2,3.1c0.9,0.9,1.9,1.9,3,2.9c1.1,0.9,2.1,2,3,3.3c0.9,1.2,1.7,2.6,2.4,4.2
		C202.1,56.9,202.5,58.9,202.6,61.1z M232.6,73.6c-2.8,1-5.4,1.6-7.8,1.9c-2.3,0.3-4.2,0.5-5.7,0.5c-1.9,0-3.5-0.4-4.9-1.1
		c-1.4-0.7-2.6-1.7-3.7-2.9c-1-1.2-1.9-2.6-2.5-4.2c-0.7-1.6-1.2-3.3-1.6-5.1c-0.4-1.8-0.7-3.6-0.9-5.4c-0.2-1.8-0.2-3.6-0.2-5.2
		c0-4,0.3-7.8,1-11.2c0.6-3.4,1.6-6.4,2.8-8.9c1.2-2.5,2.7-4.4,4.5-5.8c1.8-1.4,3.9-2.1,6.1-2.1c1.9,0,3.6,0.5,5.2,1.4
		c1.6,0.9,2.9,2.4,4,4.4c1.1,2,1.9,4.5,2.5,7.5c0.6,3,0.9,6.6,0.9,10.7c0,1.2,0,2.3-0.1,3.5c0,1.2-0.1,2.4-0.2,3.7l-16.2,2.2
		c0.1,1.1,0.3,2.2,0.6,3.2c0.3,1,0.6,1.9,1.1,2.7c0.5,0.8,1,1.4,1.6,1.8c0.6,0.5,1.4,0.7,2.2,0.7c1.7,0,3.3-0.1,5-0.3
		c1.7-0.2,3.4-0.5,5.2-0.7L232.6,73.6z M215.5,49.7l7.6-1.4v-1.7c0-2.6-0.2-4.6-0.6-6c-0.4-1.4-0.8-2.5-1.3-3.2
		c-0.6-0.8-1.2-1.3-1.9-1.4c-0.9,0.1-1.6,0.5-2.1,1.2c-0.5,0.7-0.9,1.7-1.2,2.8c-0.2,1.1-0.4,2.4-0.5,3.9c-0.1,1.4-0.1,2.9-0.1,4.4
		V49.7z"/>
</mask>
<path class="st3" d="M43.2,9l7.6,2.4L54,1.3L43.4,1L43.2,9z M36.3,32.5l-7.7-2.1l0,0l0,0L36.3,32.5z M30.3,55.4l-7.7-2l-0.3,1v1
	H30.3z M30.4,62.7l-8,0.2l0,0.1l0,0.1L30.4,62.7z M30.6,66.7l-8,0.4l0,0L30.6,66.7z M30.8,70.8l-8,0.5l0,0.1l0,0.1L30.8,70.8z
	 M31.2,75.2v8H40l-0.9-8.8L31.2,75.2z M20.2,75.2l-7.9-1l-1.2,9h9.1V75.2z M20.8,69.9l7.9,0.9l0,0l0,0L20.8,69.9z M21.2,65l-8-0.6
	l0,0.1l0,0.1L21.2,65z M21.6,54.6h8v-1l-0.2-0.9L21.6,54.6z M18.9,43.6l-7.8,1.9l0,0l0,0L18.9,43.6z M16,32.2l-7.8,2L16,32.2z
	 M13.1,20.8l-7.7,2l0,0l0,0L13.1,20.8z M10.2,9.9l-0.7-8L0,2.7L2.5,12L10.2,9.9z M21.7,8.9l8-0.4l-0.4-8.3L21,0.9L21.7,8.9z
	 M22.3,16.9l-8,0.8l0,0l0,0L22.3,16.9z M26.2,43l-7.9,1.4L34,44.5L26.2,43z M27.9,34.1L20,32.6l0,0l0,0L27.9,34.1z M30.8,16.6
	l-7.9-1.2l0,0l0,0L30.8,16.6z M31.9,8.7l0.2-8l-7.2-0.2L24,7.7L31.9,8.7z M35.6,6.6c-2.5,7.9-4.8,15.8-7,23.9l15.4,4.2
	c2.1-7.8,4.4-15.6,6.8-23.2L35.6,6.6z M28.6,30.5c-2.1,7.9-4.1,15.6-6,23l15.5,4c1.9-7.3,3.9-15,6-22.8L28.6,30.5z M22.3,55.4v2.8
	h16v-2.8H22.3z M22.3,58.3c0,1.6,0,3.1,0,4.5l16-0.4c0-1.3,0-2.7,0-4.2H22.3z M22.4,63c0,0.6,0.1,1.4,0.1,2c0,0,0,0.1,0,0.1
	c0,0,0,0.1,0,0.1c0,0,0,0.1,0,0.1c0,0,0,0.1,0,0.1c0,0,0,0.1,0,0.1c0,0,0,0.1,0,0.1c0,0,0,0.1,0,0.1c0,0,0,0.1,0,0.1
	c0,0,0,0.1,0,0.1c0,0,0,0.1,0,0.1c0,0,0,0.1,0,0.1c0,0,0,0.1,0,0.1c0,0,0,0.1,0,0.1s0,0.1,0,0.1c0,0,0,0.1,0,0.1c0,0,0,0.1,0,0.1
	l16-0.7c0-0.6-0.1-1.4-0.1-2c0,0,0-0.5,0-0.5s0-0.5,0-0.5c0,0,0-0.5,0-0.5c0,0,0-0.5,0-0.5L22.4,63z M22.6,67.1
	c0.1,1.4,0.1,2.8,0.2,4.2l16-1c-0.1-1.4-0.2-2.7-0.2-3.9L22.6,67.1z M22.8,71.5c0.1,1.4,0.3,2.9,0.4,4.5l15.9-1.6
	c-0.2-1.5-0.3-3-0.4-4.3L22.8,71.5z M31.2,67.2h-11v16h11V67.2z M28.1,76.2c0.2-1.9,0.5-3.7,0.7-5.4L12.9,69
	c-0.2,1.6-0.4,3.3-0.6,5.2L28.1,76.2z M28.8,70.8c0.2-1.8,0.3-3.5,0.4-5.3l-16-0.9C13.2,66,13,67.5,12.9,69L28.8,70.8z M29.2,65.7
	c0.1-1.7,0.2-3.4,0.3-5.2l-16-0.6c-0.1,1.6-0.1,3.1-0.3,4.6L29.2,65.7z M29.5,60.4c0.1-1.8,0.1-3.7,0.1-5.8h-16c0,1.9,0,3.6-0.1,5.2
	L29.5,60.4z M29.4,52.7c-0.9-3.5-1.8-7.2-2.7-11l-15.5,3.9c0.9,3.8,1.8,7.4,2.7,10.9L29.4,52.7z M26.7,41.8
	c-0.9-3.8-1.9-7.7-2.9-11.5l-15.5,4c1,3.8,1.9,7.6,2.8,11.3L26.7,41.8z M23.8,30.2c-1-3.8-2-7.6-2.9-11.4l-15.5,4
	c1,3.8,2,7.5,2.9,11.4L23.8,30.2z M20.9,18.8c-1-3.8-2-7.5-2.9-11.1L2.5,12c0.9,3.5,1.9,7.1,2.9,10.9L20.9,18.8z M10.9,17.8l11.5-1
	L21,0.9l-11.5,1L10.9,17.8z M13.7,9.3c0.1,2.7,0.3,5.4,0.6,8.4l15.9-1.6c-0.3-2.7-0.5-5.2-0.6-7.6L13.7,9.3z M14.3,17.8
	c0.3,2.9,0.7,5.8,1.1,8.7l15.9-2.2c-0.4-2.8-0.7-5.6-1-8.3L14.3,17.8z M15.4,26.5c0.4,3,0.9,6,1.4,9l15.8-2.6
	c-0.5-2.9-0.9-5.8-1.3-8.6L15.4,26.5z M16.8,35.5c0.5,3,1,6,1.5,8.9l15.7-2.9c-0.5-2.8-1-5.7-1.5-8.6L16.8,35.5z M34,44.5
	c0.6-2.9,1.2-5.9,1.7-9L20,32.7c-0.5,3-1.1,5.9-1.7,8.7L34,44.5z M35.7,35.6c0.6-3.1,1.1-6.1,1.6-9.1l-15.8-2.6
	c-0.5,2.9-1,5.8-1.6,8.8L35.7,35.6z M37.4,26.5c0.5-3,1-5.9,1.4-8.8l-15.8-2.3c-0.4,2.7-0.8,5.5-1.3,8.4L37.4,26.5z M38.7,17.8
	c0.4-2.8,0.8-5.5,1.1-8.1L24,7.7c-0.3,2.4-0.7,4.9-1.1,7.6L38.7,17.8z M31.7,16.7L43,17l0.4-16L32.1,0.7L31.7,16.7z M68.2,65.7
	l-7.6-2.4l0,0l0,0L68.2,65.7z M66,70.8l-6.7-4.3l0,0l0,0L66,70.8z M63.1,74.1l-4.9-6.3l0,0l0,0L63.1,74.1z M52.2,75.9l-1.8,7.8l0,0
	l0,0L52.2,75.9z M46.1,71.4l-6.7,4.4l0,0.1l0,0.1L46.1,71.4z M44,66.6l-7.7,2.3L44,66.6z M42.7,59.6l-7.9,0.9l0,0l0,0L42.7,59.6z
	 M43.4,36.4l-7.8-1.8l0,0l0,0L43.4,36.4z M46.6,28.1l6.7,4.4l0,0l0,0L46.6,28.1z M51.1,23.9l3.3,7.3l0.1,0l0.1,0L51.1,23.9z
	 M59.7,23.1L58,30.9l0.1,0l0.1,0L59.7,23.1z M62.9,24.4l-4.4,6.7l0,0l0,0L62.9,24.4z M68.1,31.9l-7.6,2.5l0,0l0,0L68.1,31.9z
	 M60,41.7l-7.9,0.9l0,0l0,0L60,41.7z M57.8,34.9l-5.1,6.2l0.1,0.1l0.1,0.1L57.8,34.9z M54.3,35.2l6,5.3l0.1-0.1l0.1-0.1L54.3,35.2z
	 M52.9,38.1l-7.7-2.2l0,0.1l0,0.1L52.9,38.1z M52.2,43.1l8,0.7l0,0L52.2,43.1z M52.2,58.2l-8,0.9l0,0.1l0,0.1L52.2,58.2z M53.2,62.9
	l-7.6,2.5l0,0.1l0,0.1L53.2,62.9z M54.6,65.4l-5.3,6l0.1,0.1l0.1,0.1L54.6,65.4z M62.2,48.5c0,3.5-0.2,6.5-0.4,8.9l15.9,1.9
	c0.4-3.2,0.6-6.8,0.6-10.8H62.2z M61.7,57.4c-0.3,2.5-0.7,4.4-1.2,5.9L75.9,68c0.8-2.7,1.4-5.6,1.8-8.8L61.7,57.4z M60.6,63.4
	c-0.5,1.5-0.9,2.5-1.3,3.1l13.4,8.7c1.4-2.2,2.4-4.6,3.2-7.2L60.6,63.4z M59.2,66.5c-0.4,0.7-0.8,1.1-1,1.2L68,80.4
	c1.9-1.5,3.5-3.3,4.8-5.3L59.2,66.5z M58.1,67.8c-0.2,0.2-0.4,0.3-0.5,0.3l4.2,15.4c2.3-0.6,4.4-1.7,6.3-3.2L58.1,67.8z M57.6,68.1
	c-0.5,0.1-1.1,0.2-1.6,0.2v16c2,0,4-0.3,5.9-0.8L57.6,68.1z M55.9,68.3c-0.7,0-1.3-0.1-1.9-0.2l-3.6,15.6c1.8,0.4,3.7,0.6,5.5,0.6
	V68.3z M54,68.1c-0.1,0-0.2-0.1-0.4-0.2l-9.4,12.9c1.8,1.3,3.9,2.3,6.1,2.8L54,68.1z M53.7,67.9c-0.1-0.1-0.5-0.4-0.9-1l-13.2,9
	c1.3,1.9,2.8,3.6,4.7,4.9L53.7,67.9z M52.8,67c-0.3-0.4-0.7-1.2-1.1-2.7l-15.3,4.6c0.7,2.5,1.7,4.8,3.1,6.9L52.8,67z M51.7,64.3
	c-0.4-1.4-0.8-3.3-1.1-5.7l-15.9,2c0.4,3,0.9,5.8,1.6,8.3L51.7,64.3z M50.6,58.7c-0.3-2.3-0.4-5.2-0.4-8.7h-16
	c0,3.9,0.2,7.4,0.5,10.5L50.6,58.7z M50.2,50c0-5.2,0.4-9.1,1-11.8l-15.6-3.5c-1,4.3-1.4,9.5-1.4,15.3H50.2z M51.2,38.3
	c0.7-3,1.5-4.8,2.1-5.8l-13.4-8.7c-2,3.1-3.4,6.8-4.3,10.8L51.2,38.3z M53.3,32.5c0.7-1.2,1.2-1.3,1.1-1.3l-6.6-14.6
	c-3.5,1.6-6,4.2-7.9,7.2L53.3,32.5z M54.5,31.1c0.7-0.3,1.2-0.4,1.8-0.4v-16c-3,0-5.9,0.7-8.6,2L54.5,31.1z M56.3,30.7
	c0.6,0,1.1,0.1,1.7,0.2l3.4-15.6c-1.7-0.4-3.4-0.5-5.1-0.5V30.7z M58.2,31c0.1,0,0.1,0,0.3,0.1l8.9-13.3c-1.9-1.3-4-2.1-6.2-2.5
	L58.2,31z M58.6,31.1c0.1,0.1,0.4,0.3,0.8,0.9l12.8-9.5c-1.3-1.8-3-3.5-5-4.7L58.6,31.1z M59.4,32c0.2,0.3,0.7,1,1.1,2.4l15.2-5.1
	c-0.8-2.5-1.9-4.9-3.5-6.9L59.4,32z M60.6,34.5c0.4,1.3,0.8,3,1.2,5.4l15.9-2.1c-0.4-3.1-1-5.9-1.9-8.4L60.6,34.5z M61.7,39.9
	c0.3,2.3,0.5,5.1,0.5,8.6h16c0-4-0.2-7.6-0.6-10.8L61.7,39.9z M68.3,48.9c0-3.1-0.1-5.8-0.4-8.1l-15.9,1.8c0.2,1.4,0.3,3.5,0.3,6.3
	H68.3z M68,40.8c-0.2-2.1-0.6-4.3-1.2-6.1l-15.2,5.1c0.1,0.3,0.3,1.2,0.5,2.9L68,40.8z M66.7,34.6c-0.5-1.6-1.6-4.2-4.1-6.1
	l-9.7,12.7c-0.8-0.6-1.2-1.2-1.3-1.4c-0.1-0.2-0.2-0.3-0.1-0.2L66.7,34.6z M62.9,28.8c-1.8-1.5-4.1-2.5-6.8-2.5v16
	c-0.7,0-1.3-0.1-1.9-0.4c-0.6-0.2-1.1-0.5-1.4-0.8L62.9,28.8z M56.1,26.3c-3.4,0-6.1,1.6-7.9,3.7l12.2,10.4
	c-0.3,0.4-0.9,0.9-1.7,1.3c-0.8,0.4-1.7,0.6-2.6,0.6V26.3z M48.3,29.9c-1.7,1.9-2.6,4.3-3.1,6l15.4,4.3c0-0.2,0.1-0.3,0.1-0.4
	c0-0.1,0-0.1,0-0.1c0,0,0,0.1-0.1,0.2c-0.1,0.1-0.2,0.3-0.4,0.6L48.3,29.9z M45.2,36.1c-0.5,1.9-0.8,4.1-1,6.4l15.9,1.4
	c0.2-1.9,0.4-3.1,0.6-3.8L45.2,36.1z M44.2,42.4c-0.2,2.4-0.3,5.1-0.3,8.2h16c0-2.8,0.1-5.1,0.2-6.8L44.2,42.4z M43.9,50.7
	c0,3.2,0.1,6,0.4,8.3l15.9-1.7c-0.2-1.6-0.3-3.8-0.3-6.6H43.9z M44.3,59.1c0.3,2.2,0.7,4.4,1.3,6.3l15.2-5.1
	c-0.2-0.5-0.4-1.5-0.6-3.2L44.3,59.1z M45.7,65.6c0.6,1.7,1.7,3.9,3.7,5.7l10.6-12c0.5,0.4,0.7,0.8,0.8,0.9c0.1,0.1,0,0.1-0.1-0.2
	L45.7,65.6z M49.5,71.5c1.7,1.5,4.1,2.6,7,2.6v-16c1.6,0,2.7,0.7,3.3,1.1L49.5,71.5z M56.5,74.1c4,0,6.7-2.2,8.3-4.4
	c1.4-2,2.1-4.2,2.5-6l-15.6-3.4c-0.2,1-0.3,0.8,0.1,0.2c0.2-0.3,0.7-1,1.6-1.5c0.9-0.6,2-0.9,3.2-0.9V74.1z M67.2,63.6
	c0.8-3.7,1.1-8.7,1.1-14.8h-16c0,5.8-0.3,9.4-0.7,11.3L67.2,63.6z M103.1,29.5l8,0.4l0.4-8.5l-8.6,0.2L103.1,29.5z M102.6,44.2
	l8,0.2v0L102.6,44.2z M102.5,67.2h-8v0l0,0L102.5,67.2z M102.6,75.7l0.2,8l8.1-0.2l-0.3-8.1L102.6,75.7z M93.5,76h-8v8.2l8.2-0.2
	L93.5,76z M93.5,70.2h8V41.8L86.7,66L93.5,70.2z M87.2,75.4l-2.5-7.6l-0.1,0l-0.1,0L87.2,75.4z M84.6,76l-0.3-8l-0.2,0l-0.2,0
	L84.6,76z M83.3,76.1l-1.6,7.8l0.8,0.2h0.8V76.1z M78.4,73.5l-5.8,5.5l0.1,0.1l0.1,0.1L78.4,73.5z M75.4,68.7l-7.5,2.8l0,0.1l0,0.1
	L75.4,68.7z M74.4,40.1l7.9,0.9l0,0L74.4,40.1z M75.3,33.3l7.9,1.2l0,0l0,0L75.3,33.3z M76.3,27.2l0.1-8L69.6,19l-1.2,6.7L76.3,27.2
	z M86.3,27.4l7.9,1.2l1.4-9l-9.1-0.2L86.3,27.4z M85.4,33.2l-7.9-1.1l0,0.1l0,0.1L85.4,33.2z M84.6,39.7l-8-0.9l0,0.1l0,0.1
	L84.6,39.7z M84.1,46.4l-8-0.5l0,0.1l0,0.1L84.1,46.4z M84.1,57.8l-8,0.8L84.1,57.8z M84.9,62l-7.7,2.2l0,0l0,0L84.9,62z M86.2,64.7
	l-6.3,4.9l0.1,0.2l0.1,0.2L86.2,64.7z M90.7,63.8l-7-3.8L90.7,63.8z M92.3,58.9l-7.9-1.5l0,0l0,0L92.3,58.9z M93.1,52l-8-0.5l0,0
	l0,0L93.1,52z M93,34.1l8-0.4l0-0.1l0-0.1L93,34.1z M92.8,29.7l-0.1-8l-8.4,0.1l0.6,8.4L92.8,29.7z M95.1,29.1
	c-0.2,5-0.4,10-0.5,14.9l16,0.3c0.1-4.8,0.3-9.5,0.5-14.4L95.1,29.1z M94.6,44c-0.1,4.9-0.1,9.7-0.1,14.7h16c0-4.8,0-9.6,0.1-14.4
	L94.6,44z M94.5,58.7C94.5,58.7,94.5,58.7,94.5,58.7C94.5,58.7,94.5,58.7,94.5,58.7C94.5,58.7,94.5,58.7,94.5,58.7
	C94.5,58.7,94.5,58.7,94.5,58.7C94.5,58.7,94.5,58.7,94.5,58.7c0,0.1,0,0.1,0,0.1c0,0,0,0,0,0s0,0,0,0c0,0,0,0,0,0s0,0,0,0
	c0,0,0,0,0,0s0,0,0,0c0,0,0,0,0,0s0,0,0,0s0,0,0,0s0,0,0,0s0,0,0,0c0,0,0,0,0,0s0,0,0,0s0,0,0,0s0,0,0,0s0,0,0,0c0,0,0,0,0,0
	s0,0,0,0s0,0,0,0s0,0,0,0s0,0,0,0s0,0,0,0s0,0,0,0s0,0,0,0s0,0,0,0s0,0,0,0s0,0,0,0s0,0,0,0s0,0,0,0s0,0,0,0s0,0,0,0c0,0,0,0,0,0
	s0,0,0,0s0,0,0,0s0,0,0,0c0,0,0,0,0,0s0,0,0,0s0,0,0,0s0,0,0,0s0,0,0,0s0,0,0,0s0,0,0,0s0,0,0,0s0,0,0,0s0,0,0,0s0,0,0,0s0,0,0,0
	s0,0,0,0s0,0,0,0s0,0,0,0s0,0,0,0c0,0,0,0,0,0s0,0,0,0s0,0,0,0s0,0,0,0s0,0,0,0s0,0,0,0s0,0,0,0s0,0,0,0s0,0,0,0s0,0,0,0s0,0,0,0
	s0,0,0,0s0,0,0,0s0,0,0,0s0,0,0,0s0,0,0,0s0,0,0,0s0,0,0,0s0,0,0,0s0,0,0,0s0,0,0,0s0,0,0,0s0,0,0,0s0,0,0,0s0,0,0,0s0,0,0,0
	s0,0,0,0s0,0,0,0s0,0,0,0c0,0,0,0,0,0s0,0,0,0s0,0,0,0s0,0,0,0s0,0,0,0s0,0,0,0s0,0,0,0s0,0,0,0s0,0,0,0s0,0,0,0c0,0,0,0,0,0
	s0,0,0,0s0,0,0,0s0,0,0,0s0,0,0,0s0,0,0,0c0,0,0,0,0,0s0,0,0,0s0,0,0,0s0,0,0,0s0,0,0,0c0,0,0,0,0,0s0,0,0,0s0,0,0,0s0,0,0,0
	c0,0,0,0,0,0s0,0,0,0s0,0,0,0s0,0,0,0c0,0,0,0,0,0s0,0,0,0s0,0,0,0s0,0,0,0s0,0,0,0s0,0,0,0s0,0,0,0c0,0,0,0,0,0s0,0,0,0s0,0,0,0
	c0,0,0,0,0,0s0,0,0,0s0,0,0,0c0,0,0,0,0,0s0,0,0,0s0,0,0,0s0,0,0,0s0,0,0,0c0,0,0,0,0,0s0,0,0,0s0,0,0,0s0,0,0,0s0,0,0,0
	c0,0,0,0,0,0s0,0,0,0c0,0,0,0,0,0s0,0,0,0c0,0,0,0,0,0s0,0,0,0s0,0,0,0s0,0,0,0s0,0,0,0s0,0,0,0s0,0,0,0s0,0,0,0s0,0,0,0s0,0,0,0
	c0,0,0,0,0,0s0,0,0,0c0,0,0,0,0,0s0,0,0,0c0,0,0,0,0,0s0,0,0,0c0,0,0,0,0,0s0,0,0,0s0,0,0,0c0,0,0,0,0,0s0,0,0,0c0,0,0,0,0,0
	s0,0,0,0s0,0,0,0c0,0,0,0,0,0s0,0,0,0s0,0,0,0c0,0,0,0,0,0s0,0,0,0c0,0,0,0,0,0c0,0,0,0,0,0s0,0,0,0s0,0,0,0c0,0,0,0,0,0s0,0,0,0
	s0,0,0,0c0,0,0,0,0,0s0,0,0,0s0,0,0,0c0,0,0,0,0,0c0,0,0,0,0,0s0,0,0,0s0,0,0,0c0,0,0,0,0,0c0,0,0,0,0,0s0,0,0,0s0,0,0,0s0,0,0,0
	c0,0,0,0,0,0c0,0,0,0,0,0s0,0,0,0s0,0,0,0s0,0,0,0c0,0,0,0,0,0c0,0,0,0,0,0c0,0,0,0,0,0s0,0,0,0s0,0,0,0s0,0,0,0s0,0,0,0
	c0,0,0,0,0,0c0,0,0,0,0,0c0,0,0,0,0,0c0,0,0,0,0,0c0,0,0,0,0,0c0,0,0,0,0,0s0,0,0,0s0,0,0,0s0,0,0,0s0,0,0,0s0,0,0,0c0,0,0,0,0,0
	c0,0,0,0,0,0c0,0,0,0,0,0c0,0,0,0,0,0c0,0,0,0,0,0c0,0,0,0,0,0c0,0,0,0,0,0c0,0,0,0,0,0c0,0,0,0,0,0c0,0,0,0,0,0c0,0,0,0,0,0
	c0,0,0,0,0,0c0,0,0,0,0,0c0,0,0,0,0,0c0,0,0,0,0,0s0,0,0,0s0,0,0,0s0,0,0,0c0,0,0,0,0,0c0,0,0,0,0,0c0,0,0,0,0,0c0,0,0,0,0,0
	c0,0,0,0,0,0c0,0,0,0,0,0c0,0,0,0,0,0s0,0,0,0s0,0,0,0c0,0,0,0,0,0c0,0,0,0,0,0c0,0,0,0,0,0c0,0,0,0,0,0c0,0,0,0,0,0s0,0,0,0
	c0,0,0,0,0,0c0,0,0,0,0,0c0,0,0,0,0,0c0,0,0,0,0,0s0,0,0,0c0,0,0,0,0,0c0,0,0,0,0,0c0,0,0,0,0,0s0,0,0,0c0,0,0,0,0,0c0,0,0,0,0,0
	c0,0,0,0,0,0s0,0,0,0c0,0,0,0,0,0c0,0,0,0,0,0c0,0,0,0,0,0c0,0,0,0,0,0c0,0,0,0,0,0c0,0,0,0,0,0c0,0,0,0,0,0c0,0,0,0,0,0
	c0,0,0,0,0,0s0,0,0,0c0,0,0,0,0,0c0,0,0,0,0,0c0,0,0,0,0,0c0,0,0,0,0,0c0,0,0,0,0,0c0,0,0,0,0,0c0,0,0,0,0,0s0,0,0,0c0,0,0,0,0,0
	c0,0,0,0,0,0c0,0,0,0,0,0c0,0,0,0,0,0c0,0,0,0,0,0c0,0,0,0,0,0s0,0,0,0c0,0,0,0,0,0c0,0,0,0,0,0c0,0,0,0,0,0c0,0,0,0,0,0
	c0,0,0,0,0,0c0,0,0,0,0,0c0,0,0,0,0,0c0,0,0,0,0,0c0,0,0,0,0,0c0,0,0,0,0,0c0,0,0,0,0,0c0,0,0,0,0,0c0,0,0,0,0,0c0,0,0,0,0,0
	c0,0,0,0,0,0c0,0,0,0,0,0c0,0,0,0,0,0c0,0,0,0,0,0c0,0,0,0,0,0c0,0,0,0,0,0s0,0,0,0c0,0,0,0,0,0c0,0,0,0,0,0c0,0,0,0,0,0
	c0,0,0,0,0,0c0,0,0,0,0,0c0,0,0,0,0,0c0,0,0,0,0,0c0,0,0,0,0,0c0,0,0,0,0,0c0,0,0,0,0,0c0,0,0,0,0,0c0,0,0,0,0,0c0,0,0,0,0,0
	c0,0,0,0,0,0c0,0,0,0,0,0c0,0,0,0,0,0c0,0,0,0,0,0c0,0,0,0,0,0c0,0,0,0,0,0c0,0,0,0,0,0s0,0,0,0c0,0,0,0,0,0c0,0,0,0,0,0
	c0,0,0,0,0,0s0,0,0,0c0,0,0,0,0,0c0,0,0,0,0,0c0,0,0,0,0,0c0,0,0,0,0,0s0,0,0,0c0,0,0,0,0,0c0,0,0,0,0,0c0,0,0,0,0,0c0,0,0,0,0,0
	c0,0,0,0,0,0s0,0,0,0c0,0,0,0,0,0c0,0,0,0,0,0c0,0,0,0,0,0c0,0,0,0,0,0c0,0,0,0,0,0c0,0,0,0,0,0s0,0,0,0c0,0,0,0,0,0s0,0,0,0
	c0,0,0,0,0,0c0,0,0,0,0,0c0,0,0,0,0,0c0,0,0,0,0,0c0,0,0,0,0,0c0,0,0,0,0,0c0,0,0,0,0,0c0,0,0,0,0,0c0,0,0,0,0,0c0,0,0,0,0,0
	c0,0,0,0,0,0c0,0,0,0,0,0c0,0,0,0,0,0c0,0,0,0,0,0c0,0,0,0,0,0c0,0,0,0,0,0c0,0,0,0,0,0c0,0,0,0,0,0c0,0,0,0,0,0c0,0,0,0,0,0
	c0,0,0,0,0,0c0,0,0,0,0,0c0,0,0,0,0,0c0,0,0,0,0,0s0,0,0,0s0,0,0,0s0,0,0,0c0,0,0,0,0,0c0,0,0,0,0,0c0,0,0,0,0,0c0,0,0,0,0,0
	c0,0,0,0,0,0c0,0,0,0,0,0s0,0,0,0s0,0,0,0c0,0,0,0,0,0c0,0,0,0,0,0c0,0,0,0,0,0c0,0,0,0,0,0s0,0,0,0s0,0,0,0c0,0,0,0,0,0
	c0,0,0,0,0,0s0,0,0,0s0,0,0,0c0,0,0,0,0,0c0,0,0,0,0,0c0,0,0,0,0,0s0,0,0,0s0,0,0,0c0,0,0,0,0,0c0,0,0,0,0,0s0,0,0,0c0,0,0,0,0,0
	c0,0,0,0,0,0s0,0,0,0s0,0,0,0c0,0,0,0,0,0c0,0,0,0,0,0s0,0,0,0c0,0,0,0,0,0s0,0,0,0c0,0,0,0,0,0c0,0,0,0,0,0s0,0,0,0s0,0,0,0
	c0,0,0,0,0,0s0,0,0,0c0,0,0,0,0,0s0,0,0,0c0,0,0,0,0,0c0,0,0,0,0,0s0,0,0,0c0,0,0,0,0,0c0,0,0,0,0,0c0,0,0,0,0,0s0,0,0,0s0,0,0,0
	c0,0,0,0,0,0s0,0,0,0c0,0,0,0,0,0s0,0,0,0c0,0,0,0,0,0s0,0,0,0c0,0,0,0,0,0s0,0,0,0c0,0,0,0,0,0s0,0,0,0s0,0,0,0s0,0,0,0
	c0,0,0,0,0,0s0,0,0,0s0,0,0,0c0,0,0,0,0,0c0,0,0,0,0,0c0,0,0,0,0,0s0,0,0,0c0,0,0,0,0,0c0,0,0,0,0,0s0,0,0,0c0,0,0,0,0,0
	c0,0,0,0,0,0s0,0,0,0c0,0,0,0,0,0s0,0,0,0s0,0,0,0c0,0,0,0,0,0s0,0,0,0c0,0,0,0,0,0c0,0,0,0,0,0s0,0,0,0s0,0,0,0c0,0,0,0,0,0
	s0,0,0,0s0,0,0,0c0,0,0,0,0,0s0,0,0,0s0,0,0,0s0,0,0,0c0,0,0,0,0,0s0,0,0,0s0,0,0,0s0,0,0,0s0,0,0,0c0,0,0,0,0,0s0,0,0,0
	c0,0,0,0,0,0s0,0,0,0s0,0,0,0c0,0,0,0,0,0s0,0,0,0s0,0,0,0s0,0,0,0c0,0,0,0,0,0s0,0,0,0c0,0,0,0,0,0c0,0,0,0,0,0s0,0,0,0s0,0,0,0
	s0,0,0,0s0,0,0,0s0,0,0,0s0,0,0,0s0,0,0,0s0,0,0,0c0,0,0,0,0,0c0,0,0,0,0,0s0,0,0,0s0,0,0,0s0,0,0,0s0,0,0,0s0,0,0,0s0,0,0,0
	s0,0,0,0s0,0,0,0s0,0,0,0c0,0,0,0,0,0s0,0,0,0s0,0,0,0c0,0,0,0,0,0s0,0,0,0s0,0,0,0h16c0,0,0,0,0,0s0,0,0,0s0,0,0,0c0,0,0,0,0,0
	s0,0,0,0s0,0,0,0c0,0,0,0,0,0s0,0,0,0s0,0,0,0s0,0,0,0s0,0,0,0s0,0,0,0s0,0,0,0s0,0,0,0s0,0,0,0s0,0,0,0c0,0,0,0,0,0c0,0,0,0,0,0
	s0,0,0,0s0,0,0,0s0,0,0,0s0,0,0,0s0,0,0,0s0,0,0,0s0,0,0,0s0,0,0,0c0,0,0,0,0,0c0,0,0,0,0,0s0,0,0,0c0,0,0,0,0,0s0,0,0,0s0,0,0,0
	s0,0,0,0c0,0,0,0,0,0s0,0,0,0s0,0,0,0c0,0,0,0,0,0s0,0,0,0c0,0,0,0,0,0s0,0,0,0s0,0,0,0s0,0,0,0s0,0,0,0c0,0,0,0,0,0s0,0,0,0
	s0,0,0,0s0,0,0,0c0,0,0,0,0,0s0,0,0,0s0,0,0,0c0,0,0,0,0,0s0,0,0,0s0,0,0,0c0,0,0,0,0,0c0,0,0,0,0,0s0,0,0,0c0,0,0,0,0,0s0,0,0,0
	s0,0,0,0c0,0,0,0,0,0s0,0,0,0c0,0,0,0,0,0c0,0,0,0,0,0s0,0,0,0c0,0,0,0,0,0c0,0,0,0,0,0s0,0,0,0c0,0,0,0,0,0c0,0,0,0,0,0
	c0,0,0,0,0,0s0,0,0,0s0,0,0,0c0,0,0,0,0,0s0,0,0,0s0,0,0,0s0,0,0,0c0,0,0,0,0,0s0,0,0,0c0,0,0,0,0,0s0,0,0,0c0,0,0,0,0,0s0,0,0,0
	c0,0,0,0,0,0s0,0,0,0c0,0,0,0,0,0s0,0,0,0s0,0,0,0c0,0,0,0,0,0c0,0,0,0,0,0c0,0,0,0,0,0s0,0,0,0c0,0,0,0,0,0c0,0,0,0,0,0s0,0,0,0
	c0,0,0,0,0,0s0,0,0,0c0,0,0,0,0,0s0,0,0,0s0,0,0,0c0,0,0,0,0,0c0,0,0,0,0,0s0,0,0,0c0,0,0,0,0,0s0,0,0,0c0,0,0,0,0,0c0,0,0,0,0,0
	s0,0,0,0s0,0,0,0c0,0,0,0,0,0c0,0,0,0,0,0s0,0,0,0c0,0,0,0,0,0c0,0,0,0,0,0s0,0,0,0s0,0,0,0c0,0,0,0,0,0c0,0,0,0,0,0c0,0,0,0,0,0
	s0,0,0,0s0,0,0,0c0,0,0,0,0,0c0,0,0,0,0,0s0,0,0,0s0,0,0,0c0,0,0,0,0,0c0,0,0,0,0,0c0,0,0,0,0,0c0,0,0,0,0,0s0,0,0,0s0,0,0,0
	c0,0,0,0,0,0c0,0,0,0,0,0c0,0,0,0,0,0c0,0,0,0,0,0c0,0,0,0,0,0c0,0,0,0,0,0s0,0,0,0s0,0,0,0s0,0,0,0c0,0,0,0,0,0c0,0,0,0,0,0
	c0,0,0,0,0,0c0,0,0,0,0,0c0,0,0,0,0,0c0,0,0,0,0,0c0,0,0,0,0,0c0,0,0,0,0,0c0,0,0,0,0,0c0,0,0,0,0,0c0,0,0,0,0,0c0,0,0,0,0,0
	c0,0,0,0,0,0c0,0,0,0,0,0c0,0,0,0,0,0c0,0,0,0,0,0c0,0,0,0,0,0c0,0,0,0,0,0c0,0,0,0,0,0c0,0,0,0,0,0c0,0,0,0,0,0c0,0,0,0,0,0
	c0,0,0,0,0,0c0,0,0,0,0,0s0,0,0,0c0,0,0,0,0,0s0,0,0,0c0,0,0,0,0,0c0,0,0,0,0,0c0,0,0,0,0,0c0,0,0,0,0,0c0,0,0,0,0,0c0,0,0,0,0,0
	s0,0,0,0c0,0,0,0,0,0c0,0,0,0,0,0c0,0,0,0,0,0c0,0,0,0,0,0c0,0,0,0,0,0s0,0,0,0c0,0,0,0,0,0c0,0,0,0,0,0c0,0,0,0,0,0c0,0,0,0,0,0
	s0,0,0,0c0,0,0,0,0,0c0,0,0,0,0,0c0,0,0,0,0,0s0,0,0,0c0,0,0,0,0,0c0,0,0,0,0,0c0,0,0,0,0,0c0,0,0,0,0,0c0,0,0,0,0,0c0,0,0,0,0,0
	c0,0,0,0,0,0c0,0,0,0,0,0c0,0,0,0,0,0c0,0,0,0,0,0c0,0,0,0,0,0c0,0,0,0,0,0c0,0,0,0,0,0c0,0,0,0,0,0c0,0,0,0,0,0c0,0,0,0,0,0
	c0,0,0,0,0,0c0,0,0,0,0,0c0,0,0,0,0,0c0,0,0,0,0,0s0,0,0,0c0,0,0,0,0,0c0,0,0,0,0,0c0,0,0,0,0,0c0,0,0,0,0,0c0,0,0,0,0,0
	c0,0,0,0,0,0c0,0,0,0,0,0c0,0,0,0,0,0c0,0,0,0,0,0c0,0,0,0,0,0c0,0,0,0,0,0c0,0,0,0,0,0c0,0,0,0,0,0c0,0,0,0,0,0c0,0,0,0,0,0
	c0,0,0,0,0,0c0,0,0,0,0,0c0,0,0,0,0,0c0,0,0,0,0,0c0,0,0,0,0,0s0,0,0,0c0,0,0,0,0,0c0,0,0,0,0,0c0,0,0,0,0,0c0,0,0,0,0,0
	c0,0,0,0,0,0c0,0,0,0,0,0s0,0,0,0c0,0,0,0,0,0c0,0,0,0,0,0c0,0,0,0,0,0c0,0,0,0,0,0c0,0,0,0,0,0c0,0,0,0,0,0c0,0,0,0,0,0s0,0,0,0
	c0,0,0,0,0,0c0,0,0,0,0,0c0,0,0,0,0,0c0,0,0,0,0,0c0,0,0,0,0,0c0,0,0,0,0,0c0,0,0,0,0,0c0,0,0,0,0,0c0,0,0,0,0,0s0,0,0,0
	c0,0,0,0,0,0c0,0,0,0,0,0c0,0,0,0,0,0s0,0,0,0c0,0,0,0,0,0c0,0,0,0,0,0c0,0,0,0,0,0s0,0,0,0c0,0,0,0,0,0c0,0,0,0,0,0c0,0,0,0,0,0
	c0,0,0,0,0,0s0,0,0,0c0,0,0,0,0,0c0,0,0,0,0,0c0,0,0,0,0,0c0,0,0,0,0,0c0,0,0,0,0,0s0,0,0,0s0,0,0,0c0,0,0,0,0,0c0,0,0,0,0,0
	c0,0,0,0,0,0c0,0,0,0,0,0c0,0,0,0,0,0c0,0,0,0,0,0c0,0,0,0,0,0s0,0,0,0s0,0,0,0s0,0,0,0c0,0,0,0,0,0c0,0,0,0,0,0c0,0,0,0,0,0
	c0,0,0,0,0,0c0,0,0,0,0,0c0,0,0,0,0,0c0,0,0,0,0,0c0,0,0,0,0,0c0,0,0,0,0,0c0,0,0,0,0,0c0,0,0,0,0,0c0,0,0,0,0,0c0,0,0,0,0,0
	c0,0,0,0,0,0c0,0,0,0,0,0s0,0,0,0s0,0,0,0s0,0,0,0s0,0,0,0s0,0,0,0c0,0,0,0,0,0c0,0,0,0,0,0c0,0,0,0,0,0c0,0,0,0,0,0c0,0,0,0,0,0
	c0,0,0,0,0,0s0,0,0,0s0,0,0,0s0,0,0,0s0,0,0,0c0,0,0,0,0,0c0,0,0,0,0,0c0,0,0,0,0,0s0,0,0,0s0,0,0,0s0,0,0,0c0,0,0,0,0,0
	c0,0,0,0,0,0s0,0,0,0s0,0,0,0s0,0,0,0c0,0,0,0,0,0c0,0,0,0,0,0s0,0,0,0s0,0,0,0c0,0,0,0,0,0c0,0,0,0,0,0s0,0,0,0s0,0,0,0
	c0,0,0,0,0,0s0,0,0,0s0,0,0,0c0,0,0,0,0,0s0,0,0,0s0,0,0,0c0,0,0,0,0,0c0,0,0,0,0,0s0,0,0,0c0,0,0,0,0,0s0,0,0,0s0,0,0,0
	c0,0,0,0,0,0s0,0,0,0s0,0,0,0c0,0,0,0,0,0s0,0,0,0c0,0,0,0,0,0s0,0,0,0s0,0,0,0c0,0,0,0,0,0s0,0,0,0c0,0,0,0,0,0s0,0,0,0
	c0,0,0,0,0,0s0,0,0,0c0,0,0,0,0,0s0,0,0,0s0,0,0,0s0,0,0,0s0,0,0,0s0,0,0,0s0,0,0,0s0,0,0,0s0,0,0,0s0,0,0,0c0,0,0,0,0,0s0,0,0,0
	c0,0,0,0,0,0s0,0,0,0c0,0,0,0,0,0s0,0,0,0s0,0,0,0s0,0,0,0s0,0,0,0c0,0,0,0,0,0s0,0,0,0s0,0,0,0s0,0,0,0s0,0,0,0c0,0,0,0,0,0
	s0,0,0,0s0,0,0,0c0,0,0,0,0,0s0,0,0,0s0,0,0,0c0,0,0,0,0,0s0,0,0,0s0,0,0,0s0,0,0,0s0,0,0,0s0,0,0,0s0,0,0,0c0,0,0,0,0,0s0,0,0,0
	s0,0,0,0s0,0,0,0c0,0,0,0,0,0s0,0,0,0s0,0,0,0s0,0,0,0c0,0,0,0,0,0s0,0,0,0s0,0,0,0s0,0,0,0s0,0,0,0c0,0,0,0,0,0s0,0,0,0s0,0,0,0
	s0,0,0,0s0,0,0,0s0,0,0,0c0,0,0,0,0,0s0,0,0,0s0,0,0,0s0,0,0,0s0,0,0,0s0,0,0,0s0,0,0,0s0,0,0,0s0,0,0,0s0,0,0,0c0,0,0,0,0,0
	s0,0,0,0s0,0,0,0s0,0,0,0s0,0,0,0s0,0,0,0s0,0,0,0s0,0,0,0s0,0,0,0s0,0,0,0s0,0,0,0s0,0,0,0s0,0,0,0s0,0,0,0s0,0,0,0s0,0,0,0
	s0,0,0,0s0,0,0,0s0,0,0,0s0,0,0,0s0,0,0,0s0,0,0,0s0,0,0,0s0,0,0,0s0,0,0,0s0,0,0,0s0,0,0,0s0,0,0,0s0,0,0,0c0,0,0,0,0,0s0,0,0,0
	s0,0,0,0s0,0,0,0s0,0,0,0s0,0,0,0s0,0,0,0s0,0,0,0s0,0,0,0s0,0,0,0s0,0,0,0s0,0,0,0s0,0,0,0s0,0,0,0s0,0,0,0s0,0,0,0c0,0,0,0,0,0
	s0,0,0,0s0,0,0,0s0,0,0,0c0,0,0,0,0,0s0,0,0,0s0,0,0,0s0,0,0,0s0,0,0,0s0,0,0,0s0,0,0,0s0,0,0,0s0,0,0,0s0,0,0,0s0,0,0,0s0,0,0,0
	s0,0,0,0s0,0,0,0s0,0,0,0c0,0,0,0,0,0s0,0,0,0s0,0,0,0s0,0,0,0s0,0,0,0c0,0,0,0,0,0s0,0,0,0s0,0,0,0s0,0,0,0s0,0,0,0c0,0,0,0,0,0
	s0,0,0,0c0,0,0,0,0,0s0,0,0,0c0,0,0,0,0,0s0,0,0,0c0,0,0,0,0,0s0,0,0,0c0,0,0,0,0,0s0,0,0,0c0,0,0,0,0,0s0,0,0,0H94.5z M94.5,67.3
	c0,2.9,0.1,5.8,0.2,8.7l16-0.5c-0.1-2.8-0.2-5.6-0.2-8.4L94.5,67.3z M102.4,67.7L93.3,68l0.4,16l9.1-0.2L102.4,67.7z M101.5,76v-5.7
	h-16V76H101.5z M86.7,66c-0.5,0.8-0.8,1.1-0.9,1.1L95,80.2c2.2-1.6,4-3.6,5.3-5.8L86.7,66z M85.8,67.1c-0.6,0.5-1,0.6-1.1,0.6
	L89.6,83c2-0.6,3.8-1.6,5.4-2.8L85.8,67.1z M84.4,67.8C84.2,67.9,84,68,84,68c0,0,0,0,0,0c0,0,0.1,0,0.2,0l0.7,16
	c1.8-0.1,3.6-0.5,5-1.1L84.4,67.8z M83.9,68c-0.4,0-0.6,0-0.8,0.1c-0.1,0-0.1,0-0.1,0c0,0,0,0,0,0c0,0,0.1,0,0.2,0v16
	c0.5,0,1.4-0.1,1.9-0.1L83.9,68z M84.9,68.2c-0.5-0.1-0.7-0.3-0.8-0.3L72.8,79.2c2.5,2.5,5.5,4,8.9,4.7L84.9,68.2z M84.2,68
	c-0.5-0.5-0.9-1.2-1.4-2.3L68,71.6c1.1,2.7,2.6,5.3,4.7,7.4L84.2,68z M82.9,65.9c-0.5-1.3-0.9-2.9-1.1-4.8l-15.9,2
	c0.4,3,1,5.8,2,8.4L82.9,65.9z M81.8,61.1c-0.3-2.1-0.4-4.3-0.4-6.7h-16c0,3,0.2,5.9,0.5,8.7L81.8,61.1z M81.4,54.3
	c0-2.1,0.1-4.3,0.3-6.5l-16-1.2c-0.2,2.6-0.3,5.2-0.3,7.7H81.4z M81.7,47.8c0.2-2.3,0.4-4.6,0.7-6.8l-15.9-1.9
	c-0.3,2.4-0.5,4.9-0.7,7.4L81.7,47.8z M82.3,41c0.3-2.3,0.6-4.4,0.9-6.5l-15.8-2.4c-0.4,2.3-0.7,4.6-1,7.1L82.3,41z M83.2,34.5
	c0.3-2.1,0.7-4.1,1-6l-15.8-2.8c-0.3,2-0.7,4.1-1,6.3L83.2,34.5z M76.1,35.2l10,0.2l0.3-16l-10-0.2L76.1,35.2z M78.4,26.1
	c-0.3,1.8-0.6,3.8-0.9,5.9l15.8,2.3c0.3-2.1,0.6-4,0.9-5.8L78.4,26.1z M77.5,32.2c-0.3,2.2-0.5,4.4-0.8,6.6l15.9,1.8
	c0.2-2.2,0.5-4.3,0.8-6.3L77.5,32.2z M76.7,38.9c-0.2,2.3-0.4,4.6-0.6,6.9l16,1.1c0.1-2.2,0.3-4.3,0.5-6.4L76.7,38.9z M76.1,45.9
	c-0.1,2.3-0.2,4.6-0.2,6.7h16c0-1.8,0.1-3.8,0.2-5.8L76.1,45.9z M75.9,52.6c0,2.1,0.1,4,0.3,5.9L92.1,57c-0.1-1.3-0.2-2.8-0.2-4.4
	H75.9z M76.2,58.6c0.2,1.9,0.5,3.8,1,5.6l15.4-4.3c-0.2-0.6-0.4-1.5-0.5-2.8L76.2,58.6z M77.2,64.2c0.5,1.8,1.3,3.7,2.6,5.4
	l12.7-9.8c0.1,0.1,0.1,0.2,0.2,0.2c0,0.1,0,0.1,0,0.1c0,0,0,0,0-0.1c0-0.1-0.1-0.2-0.1-0.3L77.2,64.2z M80.1,69.9
	c2,2.3,4.8,3.8,8.1,3.8v-16c0.7,0,1.5,0.2,2.3,0.5c0.8,0.4,1.4,0.9,1.7,1.3L80.1,69.9z M88.2,73.7c5.1,0,8.1-3.3,9.6-6.1L83.7,60
	c0-0.1,0.4-0.7,1.2-1.3c0.9-0.7,2.1-1.1,3.3-1.1V73.7z M97.8,67.6c1.2-2.2,1.9-4.8,2.4-7.3l-15.7-2.9c-0.3,1.5-0.6,2.3-0.7,2.6
	L97.8,67.6z M100.2,60.4c0.5-2.5,0.8-5.2,0.9-8l-16-0.8c-0.1,2.2-0.3,4.1-0.6,5.7L100.2,60.4z M101.1,52.5c0.2-2.7,0.2-5.4,0.2-8.1
	h-16c0,2.4-0.1,4.8-0.2,7.2L101.1,52.5z M101.3,44.3c0-2,0-3.9-0.1-5.8l-16,0.6c0.1,1.6,0.1,3.4,0.1,5.2H101.3z M101.2,38.6
	c-0.1-1.8-0.1-3.3-0.2-4.8l-16,0.7c0.1,1.3,0.1,2.9,0.2,4.6L101.2,38.6z M101,33.7c-0.1-1.6-0.2-3.1-0.3-4.5l-16,1.1
	c0.1,1.3,0.2,2.8,0.3,4.4L101,33.7z M92.9,37.7l10.3-0.2l-0.3-16l-10.3,0.2L92.9,37.7z M147.2,74.9l-0.3,8l8.3,0.3v-8.3H147.2z
	 M142.2,74.8l-0.2,8l0,0L142.2,74.8z M130.4,74.8l-0.2-8l-0.1,0l-0.1,0L130.4,74.8z M123.2,75.2l-8-0.4l-0.4,8.9l8.9-0.6L123.2,75.2
	z M123.8,58.3l-8-0.3l0,0v0L123.8,58.3z M123.9,25.2l-8,0.2l0,0l0,0L123.9,25.2z M123.2,8.9l0.8-8L114.6,0l0.6,9.4L123.2,8.9z
	 M124.2,9l0.7-8l-0.4,0h-0.4V9z M130.3,9l0.2,8l0.1,0l0.1,0L130.3,9z M133.8,8.7l8,0.7l0.9-9.4l-9.4,0.7L133.8,8.7z M132.9,22.6
	l-8-0.3l0,0l0,0L132.9,22.6z M132.6,37.4l-8-0.1l0,0v0L132.6,37.4z M132.5,52.3l-8,0v0v0H132.5z M132.4,66.6l-8-0.2l-0.2,8.4
	l8.4-0.2L132.4,66.6z M139.7,66.2l-0.6-8l0,0L139.7,66.2z M147.2,65.3h8V56l-9.2,1.4L147.2,65.3z M147.5,66.9
	c-1.8-0.1-3.5-0.1-5.1-0.1l-0.3,16c1.6,0,3.2,0.1,4.9,0.1L147.5,66.9z M142.4,66.8c-1.6,0-3.3,0-4.9,0v16c1.5,0,3.1,0,4.6,0
	L142.4,66.8z M137.5,66.7c-2.5,0-4.9,0-7.3,0.1l0.4,16c2.3-0.1,4.5-0.1,6.9-0.1V66.7z M130.1,66.8c-2.4,0.1-4.8,0.2-7.4,0.4l1,16
	c2.4-0.1,4.8-0.3,7-0.4L130.1,66.8z M131.2,75.6c0.3-5.7,0.5-11.4,0.6-17.1l-16-0.4c-0.2,5.5-0.4,11.1-0.6,16.7L131.2,75.6z
	 M131.8,58.6c0.2-5.7,0.3-11.4,0.3-17.2h-16c0,5.6-0.1,11.2-0.3,16.7L131.8,58.6z M132.1,41.4c0-5.5-0.1-11-0.2-16.4l-16,0.5
	c0.2,5.3,0.2,10.6,0.2,16H132.1z M131.9,25c-0.1-5.5-0.4-11-0.7-16.6l-16,1c0.3,5.3,0.6,10.7,0.7,15.9L131.9,25z M122.4,16.9
	c0.6,0.1,1.3,0.1,1.9,0.1V1c-0.1,0-0.2,0-0.2,0c0,0-0.1,0,0,0L122.4,16.9z M123.5,16.9c0.7,0.1,1.3,0.1,2,0.1V1c-0.2,0-0.3,0-0.4,0
	C125,1,125,1,125,1L123.5,16.9z M125.5,17C125.5,17,125.5,17,125.5,17C125.5,17,125.5,17,125.5,17C125.5,17,125.5,17,125.5,17
	C125.5,17,125.5,17,125.5,17C125.5,17,125.5,17,125.5,17C125.5,17,125.5,17,125.5,17C125.5,17,125.5,17,125.5,17
	C125.5,17,125.5,17,125.5,17C125.5,17,125.5,17,125.5,17C125.5,17,125.5,17,125.5,17C125.5,17,125.5,17,125.5,17
	C125.5,17,125.5,17,125.5,17C125.5,17,125.5,17,125.5,17C125.5,17,125.5,17,125.5,17C125.5,17,125.5,17,125.5,17
	C125.5,17,125.5,17,125.5,17C125.5,17,125.5,17,125.5,17C125.5,17,125.5,17,125.5,17C125.5,17,125.5,17,125.5,17
	C125.5,17,125.5,17,125.5,17C125.5,17,125.5,17,125.5,17C125.5,17,125.5,17,125.5,17C125.5,17,125.5,17,125.5,17
	C125.5,17,125.5,17,125.5,17C125.5,17,125.5,17,125.5,17C125.5,17,125.5,17,125.5,17C125.5,17,125.5,17,125.5,17
	C125.6,17,125.6,17,125.5,17C125.6,17,125.6,17,125.5,17C125.6,17,125.6,17,125.5,17C125.6,17,125.6,17,125.5,17
	C125.6,17,125.6,17,125.5,17C125.6,17,125.6,17,125.5,17C125.6,17,125.6,17,125.5,17c0.1,0,0.1,0,0.1,0s0,0,0,0s0,0,0,0s0,0,0,0
	s0,0,0,0s0,0,0,0s0,0,0,0s0,0,0,0s0,0,0,0c0,0,0,0,0,0s0,0,0,0s0,0,0,0s0,0,0,0s0,0,0,0c0,0,0,0,0,0s0,0,0,0s0,0,0,0s0,0,0,0
	s0,0,0,0c0,0,0,0,0,0s0,0,0,0s0,0,0,0s0,0,0,0s0,0,0,0s0,0,0,0s0,0,0,0c0,0,0,0,0,0s0,0,0,0s0,0,0,0s0,0,0,0s0,0,0,0s0,0,0,0
	s0,0,0,0c0,0,0,0,0,0s0,0,0,0s0,0,0,0s0,0,0,0s0,0,0,0s0,0,0,0s0,0,0,0s0,0,0,0s0,0,0,0c0,0,0,0,0,0s0,0,0,0s0,0,0,0s0,0,0,0
	s0,0,0,0c0,0,0,0,0,0s0,0,0,0s0,0,0,0s0,0,0,0s0,0,0,0s0,0,0,0s0,0,0,0s0,0,0,0s0,0,0,0c0,0,0,0,0,0s0,0,0,0s0,0,0,0s0,0,0,0
	s0,0,0,0c0,0,0,0,0,0s0,0,0,0s0,0,0,0s0,0,0,0s0,0,0,0s0,0,0,0s0,0,0,0s0,0,0,0s0,0,0,0c0,0,0,0,0,0s0,0,0,0s0,0,0,0s0,0,0,0
	s0,0,0,0s0,0,0,0s0,0,0,0s0,0,0,0s0,0,0,0c0,0,0,0,0,0s0,0,0,0s0,0,0,0s0,0,0,0s0,0,0,0c0,0,0,0,0,0s0,0,0,0s0,0,0,0s0,0,0,0
	s0,0,0,0s0,0,0,0s0,0,0,0s0,0,0,0s0,0,0,0c0,0,0,0,0,0s0,0,0,0s0,0,0,0s0,0,0,0s0,0,0,0s0,0,0,0s0,0,0,0s0,0,0,0s0,0,0,0
	c0,0,0,0,0,0s0,0,0,0s0,0,0,0s0,0,0,0s0,0,0,0c0,0,0,0,0,0s0,0,0,0s0,0,0,0c0,0,0,0,0,0c0,0,0,0,0,0s0,0,0,0s0,0,0,0s0,0,0,0
	s0,0,0,0s0,0,0,0s0,0,0,0s0,0,0,0s0,0,0,0c0,0,0,0,0,0s0,0,0,0s0,0,0,0c0,0,0,0,0,0s0,0,0,0s0,0,0,0s0,0,0,0s0,0,0,0s0,0,0,0
	c0,0,0,0,0,0s0,0,0,0s0,0,0,0s0,0,0,0c0,0,0,0,0,0s0,0,0,0s0,0,0,0s0,0,0,0s0,0,0,0c0,0,0,0,0,0s0,0,0,0s0,0,0,0s0,0,0,0s0,0,0,0
	s0,0,0,0s0,0,0,0s0,0,0,0s0,0,0,0c0,0,0,0,0,0s0,0,0,0s0,0,0,0s0,0,0,0s0,0,0,0s0,0,0,0s0,0,0,0s0,0,0,0s0,0,0,0c0,0,0,0,0,0
	s0,0,0,0c0,0,0,0,0,0s0,0,0,0c0,0,0,0,0,0s0,0,0,0s0,0,0,0s0,0,0,0s0,0,0,0c0,0,0,0,0,0s0,0,0,0s0,0,0,0s0,0,0,0c0,0,0,0,0,0
	s0,0,0,0s0,0,0,0c0,0,0,0,0,0s0,0,0,0s0,0,0,0s0,0,0,0s0,0,0,0s0,0,0,0c0,0,0,0,0,0s0,0,0,0s0,0,0,0s0,0,0,0s0,0,0,0s0,0,0,0
	c0,0,0,0,0,0s0,0,0,0s0,0,0,0c0,0,0,0,0,0s0,0,0,0s0,0,0,0s0,0,0,0c0,0,0,0,0,0s0,0,0,0s0,0,0,0s0,0,0,0c0,0,0,0,0,0s0,0,0,0
	s0,0,0,0s0,0,0,0s0,0,0,0c0,0,0,0,0,0s0,0,0,0s0,0,0,0s0,0,0,0c0,0,0,0,0,0c0,0,0,0,0,0s0,0,0,0s0,0,0,0s0,0,0,0s0,0,0,0
	c0,0,0,0,0,0s0,0,0,0s0,0,0,0c0,0,0,0,0,0s0,0,0,0s0,0,0,0s0,0,0,0c0,0,0,0,0,0s0,0,0,0c0,0,0,0,0,0s0,0,0,0s0,0,0,0s0,0,0,0
	s0,0,0,0s0,0,0,0s0,0,0,0c0,0,0,0,0,0s0,0,0,0c0,0,0,0,0,0s0,0,0,0c0,0,0,0,0,0s0,0,0,0c0,0,0,0,0,0s0,0,0,0c0,0,0,0,0,0s0,0,0,0
	c0,0,0,0,0,0s0,0,0,0s0,0,0,0s0,0,0,0c0,0,0,0,0,0s0,0,0,0s0,0,0,0c0,0,0,0,0,0c0,0,0,0,0,0s0,0,0,0s0,0,0,0c0,0,0,0,0,0
	c0,0,0,0,0,0s0,0,0,0s0,0,0,0s0,0,0,0s0,0,0,0s0,0,0,0s0,0,0,0c0,0,0,0,0,0s0,0,0,0s0,0,0,0s0,0,0,0c0,0,0,0,0,0c0,0,0,0,0,0
	s0,0,0,0s0,0,0,0s0,0,0,0c0,0,0,0,0,0s0,0,0,0c0,0,0,0,0,0s0,0,0,0s0,0,0,0s0,0,0,0s0,0,0,0s0,0,0,0s0,0,0,0c0,0,0,0,0,0s0,0,0,0
	s0,0,0,0c0,0,0,0,0,0s0,0,0,0s0,0,0,0s0,0,0,0s0,0,0,0c0,0,0,0,0,0s0,0,0,0s0,0,0,0s0,0,0,0c0,0,0,0,0,0c0,0,0,0,0,0s0,0,0,0
	s0,0,0,0c0,0,0,0,0,0s0,0,0,0s0,0,0,0c0,0,0,0,0,0s0,0,0,0s0,0,0,0c0,0,0,0,0,0s0,0,0,0s0,0,0,0c0,0,0,0,0,0s0,0,0,0s0,0,0,0
	c0,0,0,0,0,0c0,0,0,0,0,0s0,0,0,0c0,0,0,0,0,0s0,0,0,0c0,0,0,0,0,0c0,0,0,0,0,0s0,0,0,0s0,0,0,0c0,0,0,0,0,0s0,0,0,0s0,0,0,0
	s0,0,0,0c0,0,0,0,0,0s0,0,0,0s0,0,0,0s0,0,0,0c0,0,0,0,0,0s0,0,0,0s0,0,0,0c0,0,0,0,0,0s0,0,0,0s0,0,0,0c0,0,0,0,0,0s0,0,0,0
	s0,0,0,0s0,0,0,0s0,0,0,0c0,0,0,0,0,0s0,0,0,0c0,0,0,0,0,0c0,0,0,0,0,0s0,0,0,0c0,0,0,0,0,0c0,0,0,0,0,0s0,0,0,0c0,0,0,0,0,0
	s0,0,0,0c0,0,0,0,0,0s0,0,0,0s0,0,0,0c0,0,0,0,0,0c0,0,0,0,0,0s0,0,0,0s0,0,0,0s0,0,0,0c0,0,0,0,0,0s0,0,0,0s0,0,0,0s0,0,0,0
	c0,0,0,0,0,0c0,0,0,0,0,0s0,0,0,0s0,0,0,0c0,0,0,0,0,0s0,0,0,0c0,0,0,0,0,0s0,0,0,0c0,0,0,0,0,0s0,0,0,0s0,0,0,0s0,0,0,0s0,0,0,0
	c0,0,0,0,0,0s0,0,0,0c0,0,0,0,0,0s0,0,0,0s0,0,0,0s0,0,0,0s0,0,0,0c0,0,0,0,0,0s0,0,0,0c0,0,0,0,0,0s0,0,0,0s0,0,0,0s0,0,0,0
	s0,0,0,0c0,0,0,0,0,0s0,0,0,0c0,0,0,0,0,0s0,0,0,0c0,0,0,0,0,0s0,0,0,0s0,0,0,0s0,0,0,0s0,0,0,0s0,0,0,0s0,0,0,0c0,0,0,0,0,0
	s0,0,0,0c0,0,0,0,0,0s0,0,0,0c0,0,0,0,0,0s0,0,0,0c0,0,0,0,0,0s0,0,0,0c0,0,0,0,0,0s0,0,0,0s0,0,0,0s0,0,0,0s0,0,0,0s0,0,0,0
	s0,0,0,0s0,0,0,0s0,0,0,0s0,0,0,0s0,0,0,0c0,0,0,0,0,0s0,0,0,0c0,0,0,0,0,0s0,0,0,0c0,0,0,0,0,0s0,0,0,0c0,0,0,0,0,0s0,0,0,0
	c0,0,0,0,0,0s0,0,0,0c0,0,0,0,0,0s0,0,0,0c0,0,0,0,0,0s0,0,0,0c0,0,0,0,0,0s0,0,0,0c0,0,0,0,0,0s0,0,0,0c0,0,0,0,0,0s0,0,0,0
	s0,0,0,0s0,0,0,0s0,0,0,0s0,0,0,0s0,0,0,0s0,0,0,0s0,0,0,0c0,0,0,0,0,0s0,0,0,0c0,0,0,0,0,0s0,0,0,0c0,0,0,0,0,0s0,0,0,0
	c0,0,0,0,0,0s0,0,0,0c0,0,0,0,0,0s0,0,0,0c0,0,0,0,0,0s0,0,0,0c0,0,0,0,0,0s0,0,0,0s0,0,0,0c0,0,0,0,0,0c0,0,0,0,0,0c0,0,0,0,0,0
	s0,0,0,0c0,0,0,0,0,0c0,0,0,0,0,0c0,0,0,0,0,0s0,0,0,0s0,0,0,0c0,0,0,0,0,0s0,0,0,0c0,0,0,0,0,0s0,0,0,0c0,0,0,0,0,0s0,0,0,0
	s0,0,0,0s0,0,0,0s0,0,0,0c0,0,0,0,0,0s0,0,0,0c0,0,0,0,0,0s0,0,0,0s0,0,0,0c0,0,0,0,0,0s0,0,0,0c0,0,0,0,0,0s0,0,0,0c0,0,0,0,0,0V1
	c0,0,0,0,0,0c0,0,0,0,0,0s0,0,0,0c0,0,0,0,0,0s0,0,0,0c0,0,0,0,0,0s0,0,0,0s0,0,0,0c0,0,0,0,0,0s0,0,0,0c0,0,0,0,0,0s0,0,0,0
	s0,0,0,0s0,0,0,0s0,0,0,0c0,0,0,0,0,0s0,0,0,0c0,0,0,0,0,0s0,0,0,0c0,0,0,0,0,0s0,0,0,0s0,0,0,0c0,0,0,0,0,0c0,0,0,0,0,0
	c0,0,0,0,0,0s0,0,0,0c0,0,0,0,0,0c0,0,0,0,0,0c0,0,0,0,0,0s0,0,0,0s0,0,0,0c0,0,0,0,0,0s0,0,0,0c0,0,0,0,0,0s0,0,0,0c0,0,0,0,0,0
	s0,0,0,0c0,0,0,0,0,0s0,0,0,0c0,0,0,0,0,0s0,0,0,0c0,0,0,0,0,0s0,0,0,0c0,0,0,0,0,0s0,0,0,0s0,0,0,0s0,0,0,0s0,0,0,0s0,0,0,0
	s0,0,0,0s0,0,0,0s0,0,0,0c0,0,0,0,0,0s0,0,0,0c0,0,0,0,0,0s0,0,0,0c0,0,0,0,0,0s0,0,0,0c0,0,0,0,0,0s0,0,0,0c0,0,0,0,0,0s0,0,0,0
	c0,0,0,0,0,0s0,0,0,0c0,0,0,0,0,0s0,0,0,0c0,0,0,0,0,0s0,0,0,0c0,0,0,0,0,0s0,0,0,0c0,0,0,0,0,0s0,0,0,0s0,0,0,0s0,0,0,0s0,0,0,0
	s0,0,0,0s0,0,0,0s0,0,0,0s0,0,0,0s0,0,0,0s0,0,0,0c0,0,0,0,0,0s0,0,0,0c0,0,0,0,0,0s0,0,0,0c0,0,0,0,0,0s0,0,0,0c0,0,0,0,0,0
	s0,0,0,0c0,0,0,0,0,0s0,0,0,0s0,0,0,0s0,0,0,0s0,0,0,0s0,0,0,0s0,0,0,0c0,0,0,0,0,0s0,0,0,0c0,0,0,0,0,0s0,0,0,0c0,0,0,0,0,0
	s0,0,0,0s0,0,0,0s0,0,0,0s0,0,0,0c0,0,0,0,0,0s0,0,0,0c0,0,0,0,0,0s0,0,0,0s0,0,0,0s0,0,0,0s0,0,0,0c0,0,0,0,0,0s0,0,0,0
	c0,0,0,0,0,0s0,0,0,0s0,0,0,0s0,0,0,0s0,0,0,0c0,0,0,0,0,0s0,0,0,0c0,0,0,0,0,0s0,0,0,0c0,0,0,0,0,0s0,0,0,0s0,0,0,0c0,0,0,0,0,0
	c0,0,0,0,0,0s0,0,0,0s0,0,0,0s0,0,0,0c0,0,0,0,0,0s0,0,0,0s0,0,0,0s0,0,0,0c0,0,0,0,0,0c0,0,0,0,0,0s0,0,0,0s0,0,0,0c0,0,0,0,0,0
	s0,0,0,0c0,0,0,0,0,0s0,0,0,0c0,0,0,0,0,0c0,0,0,0,0,0s0,0,0,0c0,0,0,0,0,0c0,0,0,0,0,0s0,0,0,0c0,0,0,0,0,0s0,0,0,0s0,0,0,0
	s0,0,0,0s0,0,0,0c0,0,0,0,0,0s0,0,0,0s0,0,0,0c0,0,0,0,0,0s0,0,0,0s0,0,0,0c0,0,0,0,0,0s0,0,0,0s0,0,0,0s0,0,0,0c0,0,0,0,0,0
	s0,0,0,0s0,0,0,0s0,0,0,0c0,0,0,0,0,0s0,0,0,0s0,0,0,0c0,0,0,0,0,0c0,0,0,0,0,0s0,0,0,0c0,0,0,0,0,0s0,0,0,0c0,0,0,0,0,0
	c0,0,0,0,0,0s0,0,0,0s0,0,0,0c0,0,0,0,0,0s0,0,0,0s0,0,0,0c0,0,0,0,0,0s0,0,0,0s0,0,0,0c0,0,0,0,0,0s0,0,0,0s0,0,0,0c0,0,0,0,0,0
	s0,0,0,0s0,0,0,0c0,0,0,0,0,0c0,0,0,0,0,0s0,0,0,0s0,0,0,0s0,0,0,0c0,0,0,0,0,0s0,0,0,0s0,0,0,0s0,0,0,0s0,0,0,0c0,0,0,0,0,0
	s0,0,0,0s0,0,0,0c0,0,0,0,0,0s0,0,0,0s0,0,0,0s0,0,0,0s0,0,0,0s0,0,0,0s0,0,0,0c0,0,0,0,0,0s0,0,0,0c0,0,0,0,0,0s0,0,0,0s0,0,0,0
	s0,0,0,0c0,0,0,0,0,0c0,0,0,0,0,0s0,0,0,0s0,0,0,0s0,0,0,0c0,0,0,0,0,0s0,0,0,0s0,0,0,0s0,0,0,0s0,0,0,0s0,0,0,0s0,0,0,0
	c0,0,0,0,0,0c0,0,0,0,0,0s0,0,0,0s0,0,0,0c0,0,0,0,0,0c0,0,0,0,0,0s0,0,0,0s0,0,0,0c0,0,0,0,0,0s0,0,0,0s0,0,0,0s0,0,0,0
	c0,0,0,0,0,0s0,0,0,0c0,0,0,0,0,0s0,0,0,0c0,0,0,0,0,0s0,0,0,0c0,0,0,0,0,0s0,0,0,0c0,0,0,0,0,0s0,0,0,0c0,0,0,0,0,0s0,0,0,0
	s0,0,0,0s0,0,0,0s0,0,0,0s0,0,0,0s0,0,0,0c0,0,0,0,0,0s0,0,0,0c0,0,0,0,0,0s0,0,0,0s0,0,0,0s0,0,0,0c0,0,0,0,0,0s0,0,0,0s0,0,0,0
	c0,0,0,0,0,0s0,0,0,0s0,0,0,0s0,0,0,0s0,0,0,0c0,0,0,0,0,0c0,0,0,0,0,0s0,0,0,0s0,0,0,0s0,0,0,0c0,0,0,0,0,0s0,0,0,0s0,0,0,0
	s0,0,0,0s0,0,0,0c0,0,0,0,0,0s0,0,0,0s0,0,0,0s0,0,0,0c0,0,0,0,0,0s0,0,0,0s0,0,0,0s0,0,0,0c0,0,0,0,0,0s0,0,0,0s0,0,0,0
	c0,0,0,0,0,0s0,0,0,0s0,0,0,0s0,0,0,0s0,0,0,0s0,0,0,0c0,0,0,0,0,0s0,0,0,0s0,0,0,0s0,0,0,0s0,0,0,0s0,0,0,0c0,0,0,0,0,0s0,0,0,0
	s0,0,0,0c0,0,0,0,0,0s0,0,0,0s0,0,0,0s0,0,0,0c0,0,0,0,0,0s0,0,0,0s0,0,0,0s0,0,0,0s0,0,0,0c0,0,0,0,0,0s0,0,0,0c0,0,0,0,0,0
	s0,0,0,0c0,0,0,0,0,0s0,0,0,0s0,0,0,0s0,0,0,0s0,0,0,0s0,0,0,0s0,0,0,0s0,0,0,0s0,0,0,0c0,0,0,0,0,0s0,0,0,0s0,0,0,0s0,0,0,0
	s0,0,0,0s0,0,0,0s0,0,0,0s0,0,0,0s0,0,0,0c0,0,0,0,0,0s0,0,0,0s0,0,0,0s0,0,0,0s0,0,0,0c0,0,0,0,0,0s0,0,0,0s0,0,0,0s0,0,0,0
	c0,0,0,0,0,0s0,0,0,0s0,0,0,0s0,0,0,0s0,0,0,0s0,0,0,0c0,0,0,0,0,0s0,0,0,0s0,0,0,0c0,0,0,0,0,0s0,0,0,0s0,0,0,0s0,0,0,0s0,0,0,0
	s0,0,0,0s0,0,0,0s0,0,0,0s0,0,0,0c0,0,0,0,0,0c0,0,0,0,0,0s0,0,0,0s0,0,0,0c0,0,0,0,0,0s0,0,0,0s0,0,0,0s0,0,0,0s0,0,0,0
	c0,0,0,0,0,0s0,0,0,0s0,0,0,0s0,0,0,0s0,0,0,0s0,0,0,0s0,0,0,0s0,0,0,0s0,0,0,0c0,0,0,0,0,0s0,0,0,0s0,0,0,0s0,0,0,0s0,0,0,0
	s0,0,0,0s0,0,0,0s0,0,0,0s0,0,0,0c0,0,0,0,0,0s0,0,0,0s0,0,0,0s0,0,0,0s0,0,0,0c0,0,0,0,0,0s0,0,0,0s0,0,0,0s0,0,0,0s0,0,0,0
	s0,0,0,0s0,0,0,0s0,0,0,0s0,0,0,0c0,0,0,0,0,0s0,0,0,0s0,0,0,0s0,0,0,0s0,0,0,0s0,0,0,0s0,0,0,0s0,0,0,0s0,0,0,0c0,0,0,0,0,0
	s0,0,0,0s0,0,0,0s0,0,0,0s0,0,0,0c0,0,0,0,0,0s0,0,0,0s0,0,0,0s0,0,0,0s0,0,0,0s0,0,0,0s0,0,0,0s0,0,0,0s0,0,0,0c0,0,0,0,0,0
	s0,0,0,0s0,0,0,0s0,0,0,0s0,0,0,0c0,0,0,0,0,0s0,0,0,0s0,0,0,0s0,0,0,0s0,0,0,0s0,0,0,0s0,0,0,0s0,0,0,0s0,0,0,0c0,0,0,0,0,0
	s0,0,0,0s0,0,0,0s0,0,0,0s0,0,0,0s0,0,0,0s0,0,0,0c0,0,0,0,0,0s0,0,0,0s0,0,0,0s0,0,0,0s0,0,0,0s0,0,0,0s0,0,0,0c0,0,0,0,0,0
	s0,0,0,0s0,0,0,0s0,0,0,0s0,0,0,0c0,0,0,0,0,0s0,0,0,0s0,0,0,0s0,0,0,0s0,0,0,0c0,0,0,0,0,0s0,0,0,0s0,0,0,0s0,0,0,0s0,0,0,0
	s0,0,0,0s0,0,0,0s0,0,0,0s0,0,0,0c0,0,0,0,0,0s0,0,0,0s0,0,0,0c0,0,0,0,0,0s0,0,0,0c0,0,0,0,0,0s0,0,0,0s0,0,0,0s0,0,0,0s0,0,0,0
	c0,0,0,0,0,0s0,0,0,0s0,0,0,0s0,0,0,0c0,0,0,0,0,0s0,0,0,0s0,0,0,0s0,0,0,0s0,0,0,0c0,0,0,0,0,0s0,0,0,0s0,0,0,0s0,0,0,0
	c0,0,0,0,0,0c0,0,0,0,0,0s0,0,0,0s0,0,0,0s0,0,0,0s0,0,0,0c0,0,0,0,0,0s0,0,0,0c0,0,0,0,0,0s0,0,0,0s0,0,0,0V17z M127.1,17
	c1.1,0,2.2,0,3.4,0l-0.4-16c-1.1,0-2.1,0-3,0V17z M130.7,16.9c1.2-0.1,2.5-0.1,3.7-0.2l-1.3-16c-1.1,0.1-2.2,0.2-3.3,0.2L130.7,16.9
	z M125.8,8c-0.4,4.6-0.7,9.3-0.9,14.3l16,0.6c0.2-4.7,0.5-9.2,0.8-13.5L125.8,8z M124.9,22.4c-0.2,4.9-0.3,9.9-0.3,14.9l16,0.2
	c0.1-4.9,0.2-9.8,0.3-14.6L124.9,22.4z M124.6,37.4C124.6,37.4,124.6,37.4,124.6,37.4C124.6,37.4,124.6,37.4,124.6,37.4
	C124.6,37.4,124.6,37.4,124.6,37.4c0,0.1,0,0.1,0,0.1c0,0,0,0,0,0c0,0,0,0,0,0c0,0,0,0,0,0s0,0,0,0c0,0,0,0,0,0s0,0,0,0c0,0,0,0,0,0
	c0,0,0,0,0,0c0,0,0,0,0,0s0,0,0,0s0,0,0,0c0,0,0,0,0,0c0,0,0,0,0,0c0,0,0,0,0,0s0,0,0,0c0,0,0,0,0,0s0,0,0,0c0,0,0,0,0,0
	c0,0,0,0,0,0c0,0,0,0,0,0s0,0,0,0s0,0,0,0c0,0,0,0,0,0c0,0,0,0,0,0c0,0,0,0,0,0s0,0,0,0c0,0,0,0,0,0s0,0,0,0c0,0,0,0,0,0
	c0,0,0,0,0,0c0,0,0,0,0,0s0,0,0,0s0,0,0,0c0,0,0,0,0,0c0,0,0,0,0,0c0,0,0,0,0,0s0,0,0,0c0,0,0,0,0,0s0,0,0,0s0,0,0,0c0,0,0,0,0,0
	c0,0,0,0,0,0c0,0,0,0,0,0s0,0,0,0c0,0,0,0,0,0c0,0,0,0,0,0c0,0,0,0,0,0s0,0,0,0c0,0,0,0,0,0s0,0,0,0s0,0,0,0c0,0,0,0,0,0
	c0,0,0,0,0,0c0,0,0,0,0,0s0,0,0,0c0,0,0,0,0,0c0,0,0,0,0,0c0,0,0,0,0,0s0,0,0,0c0,0,0,0,0,0s0,0,0,0s0,0,0,0c0,0,0,0,0,0
	c0,0,0,0,0,0c0,0,0,0,0,0s0,0,0,0c0,0,0,0,0,0c0,0,0,0,0,0c0,0,0,0,0,0s0,0,0,0c0,0,0,0,0,0s0,0,0,0s0,0,0,0c0,0,0,0,0,0
	c0,0,0,0,0,0c0,0,0,0,0,0s0,0,0,0c0,0,0,0,0,0c0,0,0,0,0,0c0,0,0,0,0,0s0,0,0,0s0,0,0,0c0,0,0,0,0,0s0,0,0,0c0,0,0,0,0,0s0,0,0,0
	c0,0,0,0,0,0s0,0,0,0c0,0,0,0,0,0c0,0,0,0,0,0c0,0,0,0,0,0s0,0,0,0s0,0,0,0c0,0,0,0,0,0s0,0,0,0c0,0,0,0,0,0c0,0,0,0,0,0
	c0,0,0,0,0,0s0,0,0,0c0,0,0,0,0,0c0,0,0,0,0,0c0,0,0,0,0,0s0,0,0,0s0,0,0,0c0,0,0,0,0,0s0,0,0,0c0,0,0,0,0,0c0,0,0,0,0,0
	c0,0,0,0,0,0s0,0,0,0c0,0,0,0,0,0c0,0,0,0,0,0c0,0,0,0,0,0s0,0,0,0s0,0,0,0c0,0,0,0,0,0s0,0,0,0c0,0,0,0,0,0c0,0,0,0,0,0
	c0,0,0,0,0,0s0,0,0,0s0,0,0,0c0,0,0,0,0,0c0,0,0,0,0,0c0,0,0,0,0,0s0,0,0,0c0,0,0,0,0,0s0,0,0,0c0,0,0,0,0,0c0,0,0,0,0,0
	c0,0,0,0,0,0s0,0,0,0s0,0,0,0c0,0,0,0,0,0c0,0,0,0,0,0c0,0,0,0,0,0s0,0,0,0c0,0,0,0,0,0s0,0,0,0c0,0,0,0,0,0c0,0,0,0,0,0
	c0,0,0,0,0,0s0,0,0,0s0,0,0,0c0,0,0,0,0,0c0,0,0,0,0,0c0,0,0,0,0,0s0,0,0,0c0,0,0,0,0,0s0,0,0,0c0,0,0,0,0,0c0,0,0,0,0,0
	c0,0,0,0,0,0s0,0,0,0s0,0,0,0c0,0,0,0,0,0c0,0,0,0,0,0c0,0,0,0,0,0s0,0,0,0c0,0,0,0,0,0s0,0,0,0c0,0,0,0,0,0c0,0,0,0,0,0
	c0,0,0,0,0,0s0,0,0,0s0,0,0,0c0,0,0,0,0,0c0,0,0,0,0,0c0,0,0,0,0,0s0,0,0,0c0,0,0,0,0,0s0,0,0,0s0,0,0,0c0,0,0,0,0,0c0,0,0,0,0,0
	c0,0,0,0,0,0s0,0,0,0c0,0,0,0,0,0c0,0,0,0,0,0c0,0,0,0,0,0s0,0,0,0c0,0,0,0,0,0s0,0,0,0s0,0,0,0c0,0,0,0,0,0c0,0,0,0,0,0
	c0,0,0,0,0,0s0,0,0,0c0,0,0,0,0,0c0,0,0,0,0,0c0,0,0,0,0,0s0,0,0,0c0,0,0,0,0,0s0,0,0,0s0,0,0,0c0,0,0,0,0,0c0,0,0,0,0,0
	c0,0,0,0,0,0s0,0,0,0c0,0,0,0,0,0c0,0,0,0,0,0c0,0,0,0,0,0s0,0,0,0c0,0,0,0,0,0s0,0,0,0s0,0,0,0c0,0,0,0,0,0c0,0,0,0,0,0
	c0,0,0,0,0,0s0,0,0,0c0,0,0,0,0,0c0,0,0,0,0,0c0,0,0,0,0,0s0,0,0,0c0,0,0,0,0,0s0,0,0,0s0,0,0,0c0,0,0,0,0,0c0,0,0,0,0,0
	c0,0,0,0,0,0s0,0,0,0c0,0,0,0,0,0c0,0,0,0,0,0s0,0,0,0s0,0,0,0c0,0,0,0,0,0c0,0,0,0,0,0s0,0,0,0c0,0,0,0,0,0c0,0,0,0,0,0
	c0,0,0,0,0,0s0,0,0,0c0,0,0,0,0,0c0,0,0,0,0,0s0,0,0,0s0,0,0,0c0,0,0,0,0,0c0,0,0,0,0,0s0,0,0,0c0,0,0,0,0,0c0,0,0,0,0,0
	c0,0,0,0,0,0s0,0,0,0c0,0,0,0,0,0s0,0,0,0s0,0,0,0c0,0,0,0,0,0c0,0,0,0,0,0c0,0,0,0,0,0s0,0,0,0c0,0,0,0,0,0c0,0,0,0,0,0
	c0,0.8,0,1,0,1.9c0,0.8,0,1,0,1.9c0,0.8,0,1,0,1.9c0,0.8,0,1,0,1.9l16,0.1c0,0,0,0,0,0s0,0,0,0c0,0,0,0,0,0c0,0,0,0,0,0c0,0,0,0,0,0
	s0,0,0,0s0,0,0,0c0,0,0,0,0,0s0,0,0,0c0,0,0,0,0,0c0,0,0,0,0,0c0,0,0,0,0,0s0,0,0,0c0,0,0,0,0,0c0,0,0,0,0,0c0,0,0,0,0,0s0,0,0,0
	s0,0,0,0c0,0,0,0,0,0s0,0,0,0c0,0,0,0,0,0c0,0,0,0,0,0c0,0,0,0,0,0s0,0,0,0c0,0,0,0,0,0c0,0,0,0,0,0c0,0,0,0,0,0c0,0,0,0,0,0
	s0,0,0,0c0,0,0,0,0,0s0,0,0,0c0,0,0,0,0,0c0,0,0,0,0,0c0,0,0,0,0,0s0,0,0,0c0,0,0,0,0,0c0,0,0,0,0,0c0,0,0,0,0,0c0,0,0,0,0,0
	s0,0,0,0c0,0,0,0,0,0c0,0,0,0,0,0c0,0,0,0,0,0c0,0,0,0,0,0c0,0,0,0,0,0s0,0,0,0s0,0,0,0c0,0,0,0,0,0c0,0,0,0,0,0c0,0,0,0,0,0
	s0,0,0,0c0,0,0,0,0,0c0,0,0,0,0,0c0,0,0,0,0,0c0,0,0,0,0,0c0,0,0,0,0,0s0,0,0,0s0,0,0,0c0,0,0,0,0,0c0,0,0,0,0,0c0,0,0,0,0,0
	s0,0,0,0c0,0,0,0,0,0c0,0,0,0,0,0c0,0,0,0,0,0c0,0,0,0,0,0c0,0,0,0,0,0s0,0,0,0s0,0,0,0c0,0,0,0,0,0c0,0,0,0,0,0c0,0,0,0,0,0
	s0,0,0,0c0,0,0,0,0,0c0,0,0,0,0,0s0,0,0,0c0,0,0,0,0,0c0,0,0,0,0,0c0,0,0,0,0,0s0,0,0,0c0,0,0,0,0,0c0,0,0,0,0,0c0,0,0,0,0,0
	s0,0,0,0c0,0,0,0,0,0s0,0,0,0s0,0,0,0c0,0,0,0,0,0c0,0,0,0,0,0c0,0,0,0,0,0s0,0,0,0c0,0,0,0,0,0c0,0,0,0,0,0c0,0,0,0,0,0s0,0,0,0
	c0,0,0,0,0,0s0,0,0,0s0,0,0,0c0,0,0,0,0,0c0,0,0,0,0,0c0,0,0,0,0,0s0,0,0,0c0,0,0,0,0,0c0,0,0,0,0,0c0,0,0,0,0,0s0,0,0,0
	c0,0,0,0,0,0s0,0,0,0c0,0,0,0,0,0c0,0,0,0,0,0c0,0,0,0,0,0c0,0,0,0,0,0s0,0,0,0c0,0,0,0,0,0c0,0,0,0,0,0c0,0,0,0,0,0s0,0,0,0
	c0,0,0,0,0,0s0,0,0,0c0,0,0,0,0,0c0,0,0,0,0,0c0,0,0,0,0,0c0,0,0,0,0,0s0,0,0,0c0,0,0,0,0,0s0,0,0,0s0,0,0,0s0,0,0,0c0,0,0,0,0,0
	c0,0,0,0,0,0c0,0,0,0,0,0c0,0,0,0,0,0c0,0,0,0,0,0c0,0,0,0,0,0s0,0,0,0c0,0,0,0,0,0s0,0,0,0s0,0,0,0s0,0,0,0c0,0,0,0,0,0
	c0,0,0,0,0,0c0,0,0,0,0,0c0,0,0,0,0,0c0,0,0,0,0,0c0,0,0,0,0,0s0,0,0,0c0,0,0,0,0,0c0,0,0,0,0,0s0,0,0,0s0,0,0,0c0,0,0,0,0,0
	c0,0,0,0,0,0s0,0,0,0c0,0,0,0,0,0c0,0,0,0,0,0c0,0,0,0,0,0s0,0,0,0c0,0,0,0,0,0c0,0,0,0,0,0s0,0,0,0s0,0,0,0c0,0,0,0,0,0
	c0,0,0,0,0,0s0,0,0,0c0,0,0,0,0,0c0,0,0,0,0,0c0,0,0,0,0,0s0,0,0,0c0,0,0,0,0,0c0,0,0,0,0,0s0,0,0,0c0,0,0,0,0,0c0,0,0,0,0,0
	c0,0,0,0,0,0s0,0,0,0c0,0,0,0,0,0c0,0,0,0,0,0c0,0,0,0,0,0s0,0,0,0c0,0,0,0,0,0c0,0,0,0,0,0s0,0,0,0c0,0,0,0,0,0c0,0,0,0,0,0
	c0,0,0,0,0,0s0,0,0,0c0,0,0,0,0,0c0,0,0,0,0,0s0,0,0,0s0,0,0,0c0,0,0,0,0,0c0,0,0,0,0,0s0,0,0,0c0,0,0,0,0,0c0,0,0,0,0,0
	c0,0,0,0,0,0s0,0,0,0c0,0,0,0,0,0c0,0,0,0,0,0s0,0,0,0s0,0,0,0c0,0,0,0,0,0c0,0,0,0,0,0s0,0,0,0c0,0,0,0,0,0c0,0,0,0,0,0
	c0,0,0,0,0,0s0,0,0,0c0,0,0,0,0,0c0,0,0,0,0,0s0,0,0,0s0,0,0,0c0,0,0,0,0,0c0,0,0,0,0,0c0,0,0,0,0,0c0,0,0,0,0,0c0,0,0,0,0,0
	c0,0,0,0,0,0s0,0,0,0c0,0,0,0,0,0c0,0,0,0,0,0s0,0,0,0c0,0,0,0,0,0c0,0,0,0,0,0c0,0,0,0,0,0c0,0,0,0,0,0c0,0,0,0,0,0c0,0,0,0,0,0
	c0,0,0,0,0,0s0,0,0,0s0,0,0,0c0,0,0,0,0,0s0,0,0,0c0,0,0,0,0,0c0,0,0,0,0,0c0,0,0,0,0,0c0,0,0,0,0,0c0,0,0,0,0,0c0,0,0,0,0,0
	s0,0,0,0s0,0,0,0s0,0,0,0c0,0,0,0,0,0s0,0,0,0c0,0,0,0,0,0c0,0,0,0,0,0c0,0,0,0,0,0c0,0,0,0,0,0c0,0,0,0,0,0c0,0,0,0,0,0s0,0,0,0
	s0,0,0,0s0,0,0,0c0,0,0,0,0,0s0,0,0,0c0,0,0,0,0,0c0-0.8,0-0.1,0-0.9s0-0.1,0-0.9c0-0.8,0-0.1,0-0.9c0-0.8,0-0.1,0-0.9
	c0-0.8,0-0.1,0-0.9c0-0.8,0-0.1,0-0.9c0-0.8,0-0.1,0-0.9c0-0.8,0-0.1,0-0.9L124.6,37.4z M124.5,52.3c0,4.9,0,9.6-0.1,14.1l16,0.3
	c0.1-4.6,0.1-9.5,0.1-14.4H124.5z M132.6,74.6c2.6-0.1,5.2-0.2,7.7-0.4l-1.2-16c-2.2,0.2-4.5,0.3-6.9,0.3L132.6,74.6z M140.3,74.2
	c2.6-0.2,5.3-0.5,8.1-0.9L146,57.4c-2.5,0.4-4.8,0.6-7,0.8L140.3,74.2z M139.2,65.3v9.6h16v-9.6H139.2z M175.1,65.7l-7.6-2.4l0,0
	l0,0L175.1,65.7z M172.9,70.8l-6.7-4.3l0,0l0,0L172.9,70.8z M170,74.1l-4.9-6.3l0,0l0,0L170,74.1z M159.1,75.9l-1.8,7.8l0,0l0,0
	L159.1,75.9z M153,71.4l-6.7,4.4l0,0.1l0,0.1L153,71.4z M150.9,66.6l-7.7,2.3L150.9,66.6z M149.6,59.6l-7.9,0.9l0,0l0,0L149.6,59.6z
	 M150.3,36.4l-7.8-1.8l0,0l0,0L150.3,36.4z M153.5,28.1l6.7,4.4l0,0l0,0L153.5,28.1z M158,23.9l3.3,7.3l0.1,0l0.1,0L158,23.9z
	 M166.6,23.1l-1.7,7.8l0.1,0l0.1,0L166.6,23.1z M169.8,24.4l-4.4,6.7l0,0l0,0L169.8,24.4z M175,31.9l-7.6,2.5l0,0l0,0L175,31.9z
	 M166.9,41.7l-7.9,0.9v0l0,0L166.9,41.7z M164.7,34.9l-5.1,6.2l0.1,0.1l0.1,0.1L164.7,34.9z M161.2,35.2l6,5.3l0.1-0.1l0.1-0.1
	L161.2,35.2z M159.8,38.1l-7.7-2.2l0,0.1l0,0.1L159.8,38.1z M159.1,43.1l8,0.7l0,0L159.1,43.1z M159.1,58.2l-8,0.9l0,0.1l0,0.1
	L159.1,58.2z M160.1,62.9l-7.6,2.5l0,0.1l0,0.1L160.1,62.9z M161.5,65.4l-5.3,6l0.1,0.1l0.1,0.1L161.5,65.4z M169.1,48.5
	c0,3.5-0.2,6.5-0.4,8.9l15.9,1.9c0.4-3.2,0.6-6.8,0.6-10.8H169.1z M168.6,57.4c-0.3,2.5-0.7,4.4-1.2,5.9l15.3,4.7
	c0.8-2.7,1.4-5.6,1.8-8.8L168.6,57.4z M167.5,63.4c-0.5,1.5-0.9,2.5-1.3,3.1l13.4,8.7c1.4-2.2,2.4-4.6,3.2-7.2L167.5,63.4z
	 M166.1,66.5c-0.4,0.7-0.8,1.1-1,1.2l9.8,12.7c1.9-1.5,3.5-3.3,4.8-5.3L166.1,66.5z M165,67.8c-0.2,0.2-0.4,0.3-0.5,0.3l4.2,15.4
	c2.3-0.6,4.4-1.7,6.2-3.2L165,67.8z M164.5,68.1c-0.5,0.1-1.1,0.2-1.6,0.2v16c2,0,4-0.3,5.9-0.8L164.5,68.1z M162.8,68.3
	c-0.7,0-1.3-0.1-1.9-0.2l-3.6,15.6c1.8,0.4,3.7,0.6,5.5,0.6V68.3z M160.9,68.1c-0.1,0-0.2-0.1-0.4-0.2l-9.4,12.9
	c1.8,1.3,3.9,2.3,6.1,2.8L160.9,68.1z M160.6,67.9c-0.1-0.1-0.5-0.4-0.9-1l-13.2,9c1.3,1.9,2.8,3.6,4.7,4.9L160.6,67.9z M159.7,67
	c-0.3-0.4-0.7-1.2-1.1-2.7l-15.3,4.6c0.7,2.5,1.7,4.8,3.1,6.9L159.7,67z M158.6,64.3c-0.4-1.4-0.8-3.3-1.1-5.7l-15.9,2
	c0.4,3,0.9,5.8,1.6,8.3L158.6,64.3z M157.5,58.7c-0.3-2.3-0.4-5.2-0.4-8.7h-16c0,3.9,0.2,7.4,0.5,10.5L157.5,58.7z M157.1,50
	c0-5.2,0.4-9.1,1-11.8l-15.6-3.5c-1,4.3-1.4,9.5-1.4,15.3H157.1z M158.1,38.3c0.7-3,1.5-4.8,2.1-5.8l-13.4-8.7
	c-2,3.1-3.4,6.8-4.3,10.8L158.1,38.3z M160.2,32.5c0.7-1.2,1.2-1.3,1.1-1.3l-6.6-14.6c-3.5,1.6-6,4.2-7.9,7.2L160.2,32.5z
	 M161.4,31.1c0.7-0.3,1.2-0.4,1.8-0.4v-16c-3,0-5.9,0.7-8.6,2L161.4,31.1z M163.2,30.7c0.6,0,1.1,0.1,1.7,0.2l3.4-15.6
	c-1.7-0.4-3.4-0.5-5.1-0.5V30.7z M165.1,31c0.1,0,0.1,0,0.3,0.1l8.9-13.3c-1.9-1.3-4-2.1-6.2-2.5L165.1,31z M165.5,31.1
	c0.1,0.1,0.4,0.3,0.8,0.9l12.8-9.5c-1.3-1.8-3-3.5-5-4.7L165.5,31.1z M166.3,32c0.2,0.3,0.7,1,1.1,2.4l15.2-5.1
	c-0.8-2.5-1.9-4.9-3.5-6.9L166.3,32z M167.5,34.5c0.4,1.3,0.8,3,1.2,5.4l15.9-2.1c-0.4-3.1-1-5.9-1.9-8.4L167.5,34.5z M168.6,39.9
	c0.3,2.3,0.5,5.1,0.5,8.6h16c0-4-0.2-7.6-0.6-10.8L168.6,39.9z M175.2,48.9c0-3.1-0.1-5.8-0.4-8.1L159,42.6c0.2,1.4,0.3,3.5,0.3,6.3
	H175.2z M174.9,40.8c-0.2-2.1-0.6-4.3-1.2-6.1l-15.2,5.1c0.1,0.3,0.3,1.2,0.5,2.9L174.9,40.8z M173.6,34.6c-0.5-1.6-1.6-4.2-4.1-6.1
	l-9.7,12.7c-0.8-0.6-1.2-1.2-1.3-1.4c-0.1-0.2-0.2-0.3-0.1-0.2L173.6,34.6z M169.8,28.8c-1.8-1.5-4.1-2.5-6.8-2.5v16
	c-0.7,0-1.3-0.1-1.9-0.4c-0.6-0.2-1.1-0.5-1.4-0.8L169.8,28.8z M163,26.3c-3.4,0-6.1,1.6-7.9,3.7l12.2,10.4
	c-0.3,0.4-0.9,0.9-1.7,1.3c-0.8,0.4-1.7,0.6-2.6,0.6V26.3z M155.2,29.9c-1.7,1.9-2.6,4.3-3.1,6l15.4,4.3c0-0.2,0.1-0.3,0.1-0.4
	c0-0.1,0-0.1,0-0.1c0,0,0,0.1-0.1,0.2c-0.1,0.1-0.2,0.3-0.4,0.6L155.2,29.9z M152.1,36.1c-0.5,1.9-0.8,4.1-1,6.4l15.9,1.4
	c0.2-1.9,0.4-3.1,0.6-3.8L152.1,36.1z M151.1,42.4c-0.2,2.4-0.3,5.1-0.3,8.2h16c0-2.8,0.1-5.1,0.2-6.8L151.1,42.4z M150.8,50.7
	c0,3.2,0.1,6,0.4,8.3l15.9-1.7c-0.2-1.6-0.3-3.8-0.3-6.6H150.8z M151.2,59.1c0.3,2.2,0.7,4.4,1.3,6.3l15.2-5.1
	c-0.2-0.5-0.4-1.5-0.6-3.2L151.2,59.1z M152.6,65.6c0.6,1.7,1.7,3.9,3.7,5.7l10.6-12c0.5,0.4,0.7,0.8,0.8,0.9c0.1,0.1,0,0.1-0.1-0.2
	L152.6,65.6z M156.4,71.5c1.7,1.5,4.1,2.6,7,2.6v-16c1.6,0,2.7,0.7,3.3,1.1L156.4,71.5z M163.4,74.1c4,0,6.7-2.2,8.3-4.4
	c1.4-2,2.1-4.2,2.5-6l-15.6-3.4c-0.2,1-0.3,0.8,0.1,0.2c0.2-0.3,0.7-1,1.6-1.5c0.9-0.6,2-0.9,3.2-0.9V74.1z M174.1,63.6
	c0.8-3.7,1.1-8.7,1.1-14.8h-16c0,5.8-0.3,9.4-0.7,11.3L174.1,63.6z M202.6,61.1h8V61l0-0.1L202.6,61.1z M201.2,67.9l-7.2-3.6l0,0
	l0,0L201.2,67.9z M197.8,72.3l-5-6.2l0,0l0,0L197.8,72.3z M193.3,74.7l2.2,7.7l0.1,0l0.1,0L193.3,74.7z M188.7,75.4l-0.2,8l0.1,0
	h0.1V75.4z M185.6,75l1.7-7.8l0,0l0,0L185.6,75z M182.8,74.2l-3,7.4l0.1,0.1l0.1,0.1L182.8,74.2z M180.1,72.5l-8-0.3l-0.1,3.7
	l2.7,2.5L180.1,72.5z M180.5,62l5-6.2l-12.5-10l-0.6,16L180.5,62z M187,65.2l-2,7.7l0,0l0,0L187,65.2z M190.2,65.7l-0.5,8l2.3,0.1
	l2-1.1L190.2,65.7z M192.1,63.8l-6.9-4l0,0l0,0L192.1,63.8z M192.2,58.1l-7.4,2.9l0.1,0.1l0.1,0.1L192.2,58.1z M190.3,55.3l5.8-5.6
	l0-0.1l-0.1,0L190.3,55.3z M187.3,52.2l-5.8,5.5l0.1,0.1l0.1,0.1L187.3,52.2z M183.9,48.1l-6.6,4.6l0,0l0,0L183.9,48.1z M181.1,43
	l-7.4,2.9l0,0.1l0,0.1L181.1,43z M180.9,30.9l-7.6-2.6l0,0l0,0L180.9,30.9z M183.4,26.3l-6.1-5.2l0,0l0,0L183.4,26.3z M187.3,23.3
	L184,16l0,0l0,0L187.3,23.3z M197.1,22.9l-2.1,7.7l0.1,0l0.1,0L197.1,22.9z M202.6,25l8,0.5l0.4-5.4l-4.8-2.4L202.6,25z M201.8,35.7
	l-5.3,6l12.2,10.8l1.1-16.2L201.8,35.7z M199.3,34l-3.7,7.1l0.1,0.1l0.1,0L199.3,34z M196.8,33l2.4-7.6l0,0l0,0L196.8,33z
	 M194.2,32.4l0.9-8l-1.2-0.1l-1.1,0.2L194.2,32.4z M191.2,34.2l6.1,5.2l0,0l0,0L191.2,34.2z M190.9,41.9l-7.1,3.7l0.1,0.1l0.1,0.1
	L190.9,41.9z M193.1,45l-5.9,5.4l0.1,0.1l0.1,0.1L193.1,45z M196.1,47.9l-5.4,5.9l0,0l0,0L196.1,47.9z M199.1,51.1l-6.4,4.8l0,0.1
	l0,0L199.1,51.1z M201.5,55.4l-7.4,3l0,0.1l0,0.1L201.5,55.4z M194.6,61.1c0,1.9-0.3,2.8-0.5,3.3l14.3,7.2c1.6-3.2,2.2-6.8,2.2-10.4
	H194.6z M194,64.4c-0.4,0.9-0.9,1.4-1.2,1.6l10,12.5c2.4-1.9,4.2-4.4,5.6-7.1L194,64.4z M192.7,66.1c-0.6,0.5-1.1,0.7-1.7,0.9
	l4.6,15.3c2.7-0.8,5.1-2.1,7.2-3.9L192.7,66.1z M191.2,67c-1,0.3-1.8,0.4-2.4,0.4v16c2.3,0,4.6-0.4,6.8-1L191.2,67z M189,67.4
	c-0.6,0-1.2-0.1-1.7-0.2L184,82.8c1.5,0.3,3,0.5,4.6,0.5L189,67.4z M187.2,67.2c-0.4-0.1-1-0.3-1.7-0.5l-5.5,15
	c1.3,0.5,2.6,0.9,4,1.1L187.2,67.2z M185.8,66.8c-0.1,0-0.1-0.1-0.2-0.2l-10.9,11.8c1.5,1.4,3.2,2.5,5.1,3.2L185.8,66.8z
	 M188.1,72.8l0.4-10.5l-16-0.6l-0.4,10.5L188.1,72.8z M175.5,68.2c1.6,1.3,3.3,2.4,5.2,3.2l6.4-14.7c-0.4-0.2-0.9-0.5-1.5-1
	L175.5,68.2z M180.7,71.4c1.4,0.6,2.9,1.1,4.3,1.5l4-15.5c-0.5-0.1-1.1-0.3-1.9-0.7L180.7,71.4z M185,72.9c1.5,0.4,3.1,0.6,4.7,0.7
	l0.9-16c-0.5,0-1.1-0.1-1.7-0.3L185,72.9z M193.9,72.7c2.2-1.2,4-2.9,5.2-5.1l-14-7.8c0.1-0.2,0.3-0.5,0.6-0.7
	c0.2-0.2,0.5-0.4,0.7-0.5L193.9,72.7z M199.1,67.7c1.2-2.1,1.8-4.5,1.8-6.8h-16c0-0.1,0-0.3,0.1-0.5c0.1-0.2,0.1-0.4,0.2-0.6
	L199.1,67.7z M200.9,60.9c0-2.2-0.5-4.2-1.3-6l-14.7,6.4c0.1,0.2,0,0,0-0.4H200.9z M199.7,55.2c-0.8-2.1-2.1-3.9-3.6-5.5l-11.5,11.1
	c0.1,0.1,0.2,0.2,0.2,0.2c0,0,0,0,0,0L199.7,55.2z M196,49.6c0,0-0.7-0.7-0.7-0.7c0,0,0,0,0,0c0,0,0,0,0,0c0,0,0,0,0,0c0,0,0,0,0,0
	s0,0,0,0c0,0,0,0,0,0c0,0,0,0,0,0c0,0,0,0,0,0c0,0,0,0,0,0c0,0,0,0,0,0c0,0,0,0,0,0c0,0,0,0,0,0c0,0,0,0,0,0c0,0,0,0,0,0
	c0,0,0,0,0,0c0,0,0,0,0,0c0,0,0,0,0,0s0,0,0,0s0,0,0,0c0,0,0,0,0,0c0,0,0,0,0,0s0,0,0,0c0,0,0,0,0,0c0,0,0,0,0,0c0,0,0,0,0,0
	c0,0,0,0,0,0c0,0,0,0,0,0s0,0,0,0c0,0,0,0,0,0c0,0,0,0,0,0s0,0,0,0c0,0,0,0,0,0c0,0,0,0,0,0c0,0,0,0,0,0c0,0,0,0,0,0s0,0,0,0
	c0,0,0,0,0,0c0,0,0,0,0,0c0,0,0,0,0,0c0,0,0,0,0,0c0,0,0,0,0,0c0,0,0,0,0,0l0,0c0,0,0,0,0,0c0,0,0,0,0,0c0,0,0,0,0,0l0,0
	c0,0,0,0,0,0c0,0,0,0,0,0c0,0,0,0,0,0c0,0,0,0,0,0c0,0,0,0,0,0c0,0,0,0,0,0c-0.1-0.1,0,0-0.1-0.1c0,0,0,0,0,0c0,0,0,0,0,0
	c-0.3-0.3,0,0-0.4-0.4c-0.1-0.1-0.1-0.1-0.2-0.2c0,0-0.1-0.1-0.1-0.1c0,0-0.1-0.1-0.1-0.1c-0.2-0.2-0.7-0.7-0.9-0.9l-11.3,11.3
	c0.1,0.1,0.4,0.4,0.4,0.4c0,0,0.4,0.4,0.4,0.4c0.1,0.1,0.1,0.1,0.2,0.2c0,0,0.1,0.1,0.1,0.1c0,0,0,0,0.1,0.1c0,0,0,0,0,0
	c0,0,0,0,0,0c0,0,0.1,0.1,0.1,0.1c0,0,0.1,0.1,0.1,0.1c0.1,0.1,0.1,0.1,0.2,0.2c0.2,0.2,0.6,0.6,0.7,0.7c0.2,0.2,0.5,0.5,0.7,0.7
	L196,49.6z M193.1,46.7c-0.9-0.9-1.8-2-2.7-3.3l-13,9.3c1.3,1.8,2.7,3.5,4.1,5L193.1,46.7z M190.4,43.5c-0.7-1-1.3-2.2-1.9-3.5
	L173.7,46c1,2.4,2.2,4.6,3.6,6.6L190.4,43.5z M188.6,40c-0.3-0.8-0.5-1.9-0.5-3.2h-16c0,3.1,0.5,6.1,1.7,9L188.6,40z M188,36.9
	c0-1.5,0.2-2.6,0.5-3.4l-15.2-5c-0.9,2.7-1.3,5.5-1.3,8.4H188z M188.5,33.5c0.3-1,0.7-1.7,1.1-2.1l-12.3-10.2
	c-1.8,2.1-3.1,4.6-4,7.2L188.5,33.5z M189.5,31.5c0.4-0.4,0.8-0.7,1.2-0.9l-6.8-14.5c-2.5,1.2-4.8,2.9-6.6,5L189.5,31.5z
	 M190.7,30.6c0.4-0.2,0.9-0.3,1.7-0.3v-16c-2.9,0-5.7,0.6-8.3,1.8L190.7,30.6z M192.3,30.3c0.6,0,1.5,0.1,2.7,0.4l4.1-15.5
	c-2.3-0.6-4.5-1-6.8-1V30.3z M195.2,30.7c1.1,0.3,2.3,0.7,3.9,1.5l7.1-14.4c-2.3-1.1-4.7-2.1-7.1-2.6L195.2,30.7z M194.6,24.5
	l-0.7,10.7l16,1.1l0.7-10.7L194.6,24.5z M207.1,29.7c-1.3-1.2-2.8-2.1-4.3-2.9l-7,14.4c0.2,0.1,0.4,0.2,0.7,0.5L207.1,29.7z
	 M203,26.9c-1.2-0.6-2.4-1.2-3.7-1.6l-4.9,15.2c0.3,0.1,0.7,0.2,1.2,0.5L203,26.9z M199.2,25.3c-1.3-0.4-2.7-0.7-4.1-0.9l-1.7,15.9
	c0.3,0,0.7,0.1,1.1,0.2L199.2,25.3z M192.8,24.5c-3.2,0.6-5.8,2.3-7.7,4.6l12.4,10.1c-0.1,0.1-0.3,0.3-0.6,0.5
	c-0.4,0.2-0.7,0.4-1.1,0.4L192.8,24.5z M185.1,29.1c-2.3,2.7-3.1,5.9-3.1,9h16c0-0.1,0,0.1-0.1,0.4c-0.1,0.3-0.3,0.7-0.6,1
	L185.1,29.1z M182,38.1c0,2.5,0.5,5.1,1.8,7.6l14.2-7.5c0,0.1,0,0.1,0.1,0.1c0,0,0,0.1,0,0.1c0,0,0-0.1,0-0.3H182z M183.9,45.9
	c0.9,1.6,2,3.1,3.3,4.5L199,39.6c-0.5-0.6-0.9-1.1-1.2-1.7L183.9,45.9z M187.4,50.5c1,1.1,2.2,2.2,3.3,3.2L201.5,42
	c-1-0.9-1.8-1.7-2.6-2.6L187.4,50.5z M190.8,53.9c0.6,0.6,1.3,1.2,1.9,2.1l12.8-9.6c-1.2-1.6-2.6-3.1-4.1-4.4L190.8,53.9z M192.7,56
	c0.5,0.6,0.9,1.3,1.3,2.3l14.8-6c-0.9-2.2-2-4.3-3.5-6.1L192.7,56z M194.1,58.5c0.2,0.4,0.4,1.3,0.5,2.8l16-0.4
	c-0.1-3-0.6-5.9-1.7-8.6L194.1,58.5z M232.6,73.6l2.6,7.6l6.3-2.2l-0.9-6.5L232.6,73.6z M224.8,75.5l-1-7.9l0,0L224.8,75.5z
	 M214.2,74.9l-3.7,7.1L214.2,74.9z M210.5,71.9l-6.2,5.1l0,0l0,0L210.5,71.9z M208,67.7l-7.4,3.1l0,0l0,0L208,67.7z M206.4,62.6
	l-7.8,1.7L206.4,62.6z M205.5,57.2l-8,0.7l0,0.1l0,0.1L205.5,57.2z M206.2,40.9l7.9,1.5l0,0L206.2,40.9z M209,32l7.2,3.5L209,32z
	 M213.6,26.3l4.9,6.4l0,0l0,0L213.6,26.3z M231.4,37.4l-7.9,1.5l0,0l0,0L231.4,37.4z M232.2,51.6l-8-0.4l0,0.1l0,0.1L232.2,51.6z
	 M232,55.4l1.1,7.9l6.3-0.8l0.6-6.3L232,55.4z M215.8,57.5l-1.1-7.9l-7.7,1l0.8,7.8L215.8,57.5z M216.3,60.7l-7.8,1.9l0,0.1l0,0.1
	L216.3,60.7z M217.4,63.4l-7,3.8l0.1,0.2l0.1,0.2L217.4,63.4z M226.2,65.7l0.9,8l0.1,0l0.1,0L226.2,65.7z M231.4,64.9l7.9-1.1
	l-1.1-8l-8,1.2L231.4,64.9z M215.5,49.7h-8v9.6l9.5-1.8L215.5,49.7z M223.1,48.3l1.5,7.9l6.5-1.2v-6.6H223.1z M222.5,40.5l-7.7,2.1
	l0,0l0,0L222.5,40.5z M221.2,37.4l6.6-4.5l0,0l0,0L221.2,37.4z M219.3,36l1.4-7.9l-1.1-0.2l-1.1,0.1L219.3,36z M216,40.1l-7.8-1.8
	l0,0.1l0,0.1L216,40.1z M230,66c-2.5,0.8-4.5,1.3-6.2,1.6l2.1,15.9c3-0.4,6.1-1.2,9.4-2.3L230,66z M223.8,67.6
	c-2.1,0.3-3.7,0.4-4.7,0.4v16c2,0,4.3-0.2,6.8-0.5L223.8,67.6z M219.1,68c-0.8,0-1.1-0.2-1.2-0.2L210.5,82c2.7,1.4,5.7,2,8.6,2V68z
	 M217.9,67.8c-0.5-0.3-0.9-0.6-1.3-1l-12.2,10.4c1.7,2,3.7,3.6,6.1,4.8L217.9,67.8z M216.7,66.8c-0.5-0.6-0.9-1.3-1.3-2.2l-14.7,6.2
	c0.9,2.2,2.2,4.3,3.7,6.2L216.7,66.8z M215.4,64.6c-0.5-1.2-0.9-2.4-1.2-3.8l-15.6,3.5c0.5,2.2,1.2,4.3,2,6.4L215.4,64.6z
	 M214.2,60.9c-0.3-1.5-0.6-2.9-0.7-4.4L197.5,58c0.2,2.1,0.6,4.2,1,6.3L214.2,60.9z M213.5,56.6c-0.1-1.6-0.2-3.1-0.2-4.5h-16
	c0,1.9,0.1,3.8,0.3,5.9L213.5,56.6z M213.3,52c0-3.6,0.3-6.8,0.8-9.7l-15.7-3c-0.8,4-1.1,8.2-1.1,12.6H213.3z M214.1,42.4
	c0.5-2.9,1.3-5.1,2.1-6.8l-14.3-7.1c-1.6,3.3-2.7,7-3.5,10.9L214.1,42.4z M216.2,35.6c0.8-1.6,1.6-2.5,2.2-3l-9.7-12.7
	c-3,2.3-5.2,5.3-6.9,8.6L216.2,35.6z M218.5,32.6c0.4-0.3,0.7-0.4,1.2-0.4v-16c-4.1,0-7.9,1.3-11.1,3.8L218.5,32.6z M219.7,32.1
	c0.5,0,0.8,0.1,1,0.3l8.3-13.7c-2.9-1.7-6-2.6-9.3-2.6V32.1z M220.7,32.4c0.1,0.1,0.6,0.4,1.2,1.4l13.9-7.8
	c-1.6-2.9-3.8-5.5-6.8-7.3L220.7,32.4z M221.9,33.8c0.6,1,1.2,2.6,1.6,5.1l15.7-3c-0.7-3.6-1.8-7-3.4-9.9L221.9,33.8z M223.6,39
	c0.5,2.3,0.8,5.3,0.8,9.1h16c0-4.5-0.3-8.6-1.1-12.3L223.6,39z M224.3,48.1c0,1,0,2.1-0.1,3.1l16,0.8c0.1-1.3,0.1-2.6,0.1-3.9H224.3
	z M224.2,51.4c0,1-0.1,2-0.2,3.2l15.9,1.5c0.1-1.5,0.2-2.9,0.3-4.3L224.2,51.4z M231,47.4l-16.2,2.2l2.1,15.9l16.2-2.2L231,47.4z
	 M207.8,58.4c0.2,1.4,0.4,2.9,0.7,4.2l15.6-3.8c-0.2-0.6-0.3-1.4-0.4-2.2L207.8,58.4z M208.6,62.8c0.4,1.5,1,3,1.7,4.4l14.1-7.6
	c-0.1-0.2-0.2-0.5-0.4-1L208.6,62.8z M210.5,67.5c0.9,1.5,2.1,2.9,3.7,4.1l9.6-12.8c0.3,0.3,0.5,0.5,0.5,0.4L210.5,67.5z
	 M214.2,71.7c2.2,1.7,4.7,2.3,7,2.3V58c0.2,0,0.6,0,1.1,0.2c0.5,0.1,1,0.4,1.4,0.7L214.2,71.7z M221.2,74c1.9,0,3.9-0.1,5.8-0.3
	l-1.8-15.9c-1.4,0.2-2.7,0.2-4.1,0.2V74z M227.2,73.6c1.7-0.2,3.5-0.5,5.4-0.8L230.2,57c-1.8,0.3-3.4,0.5-5,0.7L227.2,73.6z
	 M223.5,66.1l1.2,8.6l15.8-2.3l-1.2-8.6L223.5,66.1z M217,57.6l7.6-1.4l-2.9-15.7l-7.6,1.4L217,57.6z M231.1,48.3v-1.7h-16v1.7
	H231.1z M231.1,46.5c0-2.9-0.2-5.7-0.9-8.2l-15.4,4.4c0.1,0.4,0.3,1.5,0.3,3.8H231.1z M230.2,38.4c-0.5-1.7-1.2-3.8-2.4-5.5l-13.2,9
	c-0.1-0.2-0.2-0.3-0.2-0.3c0,0,0,0,0,0.1c0.1,0.2,0.2,0.5,0.3,1L230.2,38.4z M227.8,32.8c-1.3-1.9-3.6-4.1-7.1-4.7L218,43.9
	c-2.1-0.4-3.1-1.6-3.3-2L227.8,32.8z M218.5,28c-3.2,0.3-6,2-7.8,4.6l13.1,9.2c-0.3,0.5-0.8,1-1.6,1.4c-0.7,0.4-1.4,0.6-2,0.7
	L218.5,28z M210.7,32.6c-1.3,1.8-2,3.8-2.4,5.6l15.6,3.7c0-0.1,0-0.2,0.1-0.2c0-0.1,0-0.1,0-0.1c0,0,0,0.1-0.2,0.3L210.7,32.6z
	 M208.2,38.4c-0.4,1.7-0.6,3.4-0.6,5.2l16,0.7c0-1.1,0.2-1.9,0.3-2.5L208.2,38.4z M207.6,43.6c-0.1,1.6-0.1,3.1-0.1,4.7h16
	c0-1.4,0-2.7,0.1-4L207.6,43.6z M207.5,48.3v1.4h16v-1.4H207.5z"/>
</svg>
