<?xml version="1.0" encoding="utf-8"?>
<!-- Generator: Adobe Illustrator 27.4.1, SVG Export Plug-In . SVG Version: 6.00 Build 0)  -->
<svg version="1.1" id="Layer_1" xmlns="http://www.w3.org/2000/svg" xmlns:xlink="http://www.w3.org/1999/xlink" x="0px" y="0px"
	 viewBox="0 0 197.19 84.45" enable-background="new 0 0 197.19 84.45" xml:space="preserve">
<path fill="#243041" d="M169.7,2.49l0.43,13.71c-2.83,0.22-5.58,1.26-8.04,3.03c-1.53,1.11-2.92,2.51-4.16,4.18
	c-0.72,0.96-1.39,2.02-2,3.16c-1.45,2.7-2.6,5.98-3.41,9.73c-0.78,3.58-1.17,7.71-1.17,12.27c0,5.86,0.43,10.72,1.33,14.84
	c0.94,4.36,2.18,7.88,3.79,10.76c1.48,2.66,3.23,4.81,5.23,6.4c0.55,0.45,1.12,0.84,1.7,1.2c2.8,1.71,5.76,2.57,8.8,2.57h0.57
	l0.56-0.08c0.82-0.12,1.64-0.32,2.48-0.61h19.95l1.43-82.3L169.7,2.49z M163.1,62.77l0.27-0.04l0.6-6.33
	c0.14-1.44,0.24-2.84,0.29-4.17c0.05-1.29,0.07-2.58,0.07-3.84c0-4.63-0.35-8.76-1.04-12.27c-0.77-3.89-1.89-7.1-3.43-9.83
	c-0.58-1.04-1.22-2-1.93-2.88c-1.4-1.8-3.04-3.28-4.88-4.39c-2.82-1.72-5.97-2.59-9.34-2.59c-3.77,0-7.33,1.13-10.38,3.26
	c-0.23,0.16-0.44,0.32-0.66,0.49c-2.77,2.14-5.07,5.03-6.83,8.6c-1.54,3.12-2.71,6.79-3.49,10.9c-0.73,3.88-1.1,8.14-1.1,12.66
	c0,1.86,0.1,3.84,0.29,5.89c0.2,2.16,0.54,4.31,1.01,6.41c0.5,2.23,1.18,4.38,2.03,6.42c0.98,2.34,2.26,4.45,3.79,6.29
	c0.02,0.02,0.03,0.04,0.05,0.06c1.69,1.99,3.72,3.62,6.04,4.83c2.55,1.33,5.45,2.01,8.61,2.01c1.86,0,4.08-0.17,6.8-0.53
	c2.86-0.37,6-1.14,9.34-2.29l2.49-0.86l3.77-1.3L163.1,62.77z M132.77,52.24l2.18-31.75l-1.62-0.8l-3.2-1.57
	c-2.4-1.18-4.75-2.07-6.99-2.65c-2.36-0.61-4.64-0.92-6.77-0.92c-2.97,0-5.78,0.6-8.36,1.8c-2.57,1.19-4.8,2.9-6.64,5.07
	c-0.1,0.12-0.2,0.24-0.29,0.37c-1.61,1.98-2.84,4.29-3.71,6.88c-0.87,2.6-1.31,5.45-1.31,8.47c0,3.22,0.58,6.28,1.71,9.09
	c0.07,0.17,0.14,0.35,0.21,0.52l-0.89-0.72l-1.06,30.12l2.7,2.49c1.54,1.42,3.3,2.52,5.24,3.26c1.39,0.54,2.76,0.95,4.04,1.21
	c0.06,0.01,0.11,0.02,0.17,0.03c1.42,0.29,2.89,0.47,4.38,0.51h0.23c2.19,0,4.48-0.34,6.83-1.03c2.63-0.77,5.08-2.06,7.26-3.82
	c0.54-0.43,1.05-0.9,1.54-1.39c1.58-1.59,2.91-3.49,3.99-5.66c1.46-2.93,2.19-6.42,2.19-10.37v-0.22c-0.09-3.2-0.66-6.09-1.69-8.58
	C132.87,52.47,132.82,52.35,132.77,52.24z M108.39,30.2l0.43-8.55l-7.74,0.14l-8.51,0.15l0.32-2.13l-25.97-0.47L66.62,21l-0.9,5.06
	c-0.34,1.94-0.69,4.07-1.04,6.31c-0.35,2.26-0.67,4.64-0.95,7.08c-0.29,2.43-0.53,4.95-0.72,7.46c-0.2,2.61-0.3,5.21-0.3,7.72
	c0,3.01,0.17,5.94,0.52,8.7c0.38,3.09,1.08,5.94,2.06,8.48c1.13,2.95,2.74,5.5,4.76,7.57c1.17,1.2,2.48,2.2,3.93,2.99
	c1.52,0.83,3.18,1.44,4.98,1.81l0.8,0.16h0.82c0.17,0,0.76-0.02,1.78-0.08c0.15-0.01,0.3-0.02,0.45-0.04v0.23l25.39-0.63l-0.02-0.68
	l-0.24-7.38c-0.09-2.79-0.14-5.59-0.16-8.32c-0.01-2.8-0.02-5.63-0.02-8.49c0-4.8,0.05-9.63,0.14-14.38
	C107.99,39.85,108.15,35.01,108.39,30.2z M74.11,37.23c-0.35-3.39-1.15-6.53-2.4-9.32c-1.21-2.72-2.92-5.04-5.09-6.91
	c-0.48-0.44-0.98-0.84-1.5-1.21c-3.11-2.23-7.05-3.36-11.71-3.36c-3.53,0-6.79,0.73-9.68,2.18c-0.21,0.1-0.41,0.21-0.61,0.32
	c0.02,0.07,0.04,0.15,0.06,0.22c0.85,3.03,1.26,6.42,1.26,10.38c0,3.33-0.44,6.64-1.31,9.83c-0.91,3.34-2.33,6.48-4.22,9.33
	c-1.92,2.88-4.36,5.45-7.25,7.63c-0.31,0.23-0.63,0.46-0.95,0.69c-0.72,2.13-1.08,4.32-1.08,6.53c0,2.49,0.44,4.92,1.31,7.24
	c0.87,2.3,2.09,4.38,3.65,6.19c1.62,1.89,3.57,3.41,5.77,4.54c2.42,1.24,5.03,1.87,7.78,1.87h0.2l0.21-0.01
	c1.34-0.07,2.68-0.29,4.04-0.67l21.34,1.23l0.05-1.56l0.19-6.67c0.15-5.27,0.26-10.4,0.3-15.26c0.05-4.83,0.07-9.74,0.07-14.58
	C74.54,42.95,74.4,40.04,74.11,37.23z M39.67,11.11c-1.56-2.41-3.4-4.4-5.46-5.94c-1.83-1.35-3.72-2.43-5.62-3.22
	c-1.89-0.77-3.78-1.31-5.61-1.59C21.36,0.12,19.97,0,18.73,0c-1.42,0-3.05,0.08-4.98,0.26c-2.2,0.2-4.39,0.63-6.51,1.27l-5.96,1.8
	l0.27,6.22c0.18,4.02,0.31,8.07,0.37,12.04c0.06,4.01,0.09,8.07,0.09,12.07c0,6.91-0.12,13.88-0.34,20.71
	c-0.23,6.8-0.59,13.71-1.07,20.54L0,83.47h28.13l-0.36-8.34c-0.15-3.52-0.28-7.12-0.38-10.71c-0.05-1.77-0.1-3.56-0.14-5.36
	c1.22-0.62,2.37-1.31,3.46-2.05c0.2-0.63,0.45-1.25,0.72-1.87c0.68-1.53,1.57-2.97,2.69-4.31l-2.03,0.04l-0.85-7.19
	c-0.08-0.67-0.14-1.31-0.18-1.92C31.02,41.12,31,40.48,31,39.85c0-2.78,0.48-5.55,1.41-8.24c0.97-2.79,2.41-5.32,4.29-7.53
	c1.79-2.1,3.95-3.83,6.42-5.15C42.27,15.96,41.1,13.33,39.67,11.11z"/>
<path fill="#243041" d="M44.44,29.53c0,3.33-0.44,6.64-1.31,9.83c-0.91,3.34-2.33,6.48-4.22,9.33c-1.92,2.88-4.36,5.45-7.25,7.63
	c-0.31,0.23-0.63,0.46-0.95,0.69c0.2-0.63,0.45-1.25,0.72-1.87c0.68-1.53,1.57-2.97,2.69-4.31l-2.03,0.04l-0.85-7.19
	c-0.08-0.67-0.14-1.31-0.18-1.92C31.02,41.12,31,40.48,31,39.85c0-2.78,0.48-5.55,1.41-8.24c0.97-2.79,2.41-5.32,4.29-7.53
	c1.79-2.1,3.95-3.83,6.42-5.15c0.02,0.07,0.04,0.15,0.06,0.22C44.03,22.18,44.44,25.57,44.44,29.53z"/>
<linearGradient id="SVGID_1_" gradientUnits="userSpaceOnUse" x1="98.815" y1="76.3414" x2="98.815" y2="7.9987">
	<stop  offset="0" style="stop-color:#FFFFFF"/>
	<stop  offset="0.9998" style="stop-color:#67B6FF"/>
</linearGradient>
<path fill="url(#SVGID_1_)" d="M36.44,29.53c0,2.63-0.34,5.21-1.03,7.73s-1.74,4.86-3.17,7c-1.42,2.14-3.22,4.03-5.39,5.67
	c-2.17,1.64-4.74,2.88-7.71,3.74c0.06,3.7,0.15,7.37,0.25,10.99c0.11,3.63,0.24,7.23,0.39,10.81H8.58
	c0.49-6.95,0.85-13.89,1.08-20.84c0.23-6.95,0.34-13.94,0.34-20.98c0-4.07-0.03-8.13-0.09-12.19c-0.06-4.05-0.18-8.15-0.37-12.28
	c1.62-0.49,3.27-0.81,4.93-0.96C16.15,8.08,17.56,8,18.73,8c0.83,0,1.84,0.09,3.05,0.28c1.21,0.18,2.46,0.54,3.76,1.08
	c1.3,0.54,2.6,1.29,3.9,2.25c1.3,0.96,2.47,2.25,3.51,3.86c1.04,1.61,1.88,3.56,2.52,5.85S36.44,26.34,36.44,29.53z M19.14,45.86
	c1.01-0.37,1.89-0.86,2.64-1.47c0.75-0.61,1.41-1.29,1.97-2.04c0.57-0.75,1.04-1.55,1.42-2.41c0.38-0.86,0.7-1.7,0.94-2.52
	c0.58-1.93,0.92-4.02,1.01-6.29c0-0.03-0.01-0.38-0.02-1.06c-0.02-0.67-0.09-1.52-0.23-2.55c-0.14-1.02-0.36-2.16-0.67-3.4
	c-0.31-1.24-0.73-2.42-1.26-3.56c-0.54-1.13-1.22-2.15-2.07-3.05c-0.84-0.9-1.87-1.54-3.1-1.9c-0.25,4.74-0.41,9.49-0.5,14.25
	c-0.09,4.76-0.14,9.55-0.14,14.39V45.86z M66.54,45.86c0,4.83-0.02,9.67-0.07,14.5c-0.05,4.83-0.15,9.87-0.3,15.1l-7.99-0.46v-6.2
	c-0.92,1.65-1.96,2.91-3.12,3.79c-1.16,0.87-2.26,1.52-3.3,1.95c-1.22,0.49-2.43,0.76-3.63,0.83c-1.47,0-2.85-0.33-4.13-0.99
	c-1.29-0.66-2.4-1.54-3.35-2.64c-0.95-1.1-1.69-2.36-2.23-3.79c-0.54-1.42-0.8-2.9-0.8-4.43c0-1.74,0.37-3.47,1.12-5.16
	c0.75-1.7,2.03-3.24,3.83-4.61c2.42-1.87,4.51-3.43,6.29-4.68c1.77-1.25,3.25-2.39,4.43-3.42c1.18-1.02,2.05-2,2.62-2.94
	c0.57-0.93,0.85-2.01,0.85-3.24c0-2.02-0.34-3.53-1.01-4.52c-0.67-0.99-1.56-1.49-2.66-1.49c-0.67,0-1.25,0.18-1.72,0.53
	c-0.47,0.35-0.86,0.81-1.15,1.38c-0.29,0.57-0.5,1.19-0.64,1.88s-0.21,1.37-0.21,2.04c0,0.46,0.02,0.96,0.07,1.51
	s0.15,1.13,0.3,1.74l-10.56,0.18c-0.06-0.52-0.11-1.02-0.14-1.49c-0.03-0.47-0.05-0.94-0.05-1.4c0-1.9,0.32-3.77,0.96-5.62
	c0.64-1.85,1.58-3.5,2.82-4.96c1.24-1.45,2.75-2.62,4.52-3.51c1.77-0.89,3.81-1.33,6.1-1.33c2.97,0,5.32,0.62,7.05,1.86
	c1.73,1.24,3.04,2.87,3.95,4.89c0.9,2.02,1.48,4.31,1.74,6.86C66.41,40.59,66.54,43.2,66.54,45.86z M56.21,58.85
	c0.15-0.76,0.29-1.64,0.41-2.62c0.12-0.83,0.23-1.83,0.32-3.01c0.09-1.18,0.17-2.5,0.23-3.97c-0.49,0.67-0.96,1.27-1.42,1.79
	c-0.46,0.52-0.89,0.98-1.29,1.38c-0.46,0.46-0.89,0.87-1.29,1.24c-0.7,0.58-1.45,1.23-2.25,1.95c-0.8,0.72-1.52,1.48-2.18,2.27
	c-0.66,0.8-1.21,1.61-1.65,2.46c-0.44,0.84-0.67,1.66-0.67,2.46c0,0.86,0.29,1.65,0.87,2.36c0.58,0.72,1.3,1.08,2.16,1.08
	c0.64,0,1.31-0.18,2-0.55s1.35-0.89,1.97-1.56c0.63-0.67,1.19-1.45,1.68-2.34C55.6,60.9,55.97,59.93,56.21,58.85z M100.4,29.8
	c-0.25,4.93-0.41,9.8-0.5,14.62s-0.14,9.66-0.14,14.53c0,2.88,0.01,5.72,0.02,8.54c0.02,2.82,0.07,5.66,0.16,8.54l-9.13,0.23v-5.74
	c-0.92,1.5-1.94,2.65-3.08,3.44c-1.13,0.8-2.21,1.37-3.24,1.72c-1.03,0.35-1.9,0.55-2.64,0.6s-1.16,0.07-1.29,0.07
	c-1.93-0.4-3.53-1.25-4.8-2.55c-1.27-1.3-2.28-2.92-3.03-4.87c-0.75-1.94-1.28-4.14-1.58-6.59c-0.31-2.45-0.46-5.02-0.46-7.71
	c0-2.33,0.09-4.7,0.28-7.11c0.18-2.42,0.41-4.8,0.69-7.14s0.58-4.6,0.92-6.79c0.34-2.19,0.67-4.23,1.01-6.13l10.01,0.18
	c-0.28,1.81-0.56,3.76-0.85,5.88c-0.29,2.11-0.55,4.27-0.78,6.47s-0.41,4.41-0.55,6.63c-0.14,2.22-0.21,4.32-0.21,6.31
	c0,1.84,0.08,3.55,0.23,5.14c0.15,1.59,0.4,2.98,0.73,4.15c0.34,1.18,0.77,2.1,1.31,2.75c0.54,0.66,1.2,0.99,2,0.99
	c1.04,0,1.9-0.63,2.57-1.88c0.67-1.25,1.2-2.9,1.58-4.93c0.38-2.03,0.64-4.32,0.78-6.86c0.14-2.54,0.21-5.09,0.21-7.67
	c0-1.93-0.03-3.76-0.09-5.51c-0.06-1.74-0.12-3.3-0.18-4.68c-0.09-1.59-0.18-3.08-0.28-4.45L100.4,29.8z M126.6,61.38
	c0,2.72-0.45,5-1.35,6.82c-0.9,1.82-2.04,3.28-3.4,4.38c-1.36,1.1-2.85,1.89-4.48,2.36c-1.62,0.47-3.15,0.71-4.59,0.71
	c-1.07-0.03-2.11-0.15-3.12-0.37c-0.89-0.18-1.83-0.47-2.82-0.85c-0.99-0.38-1.89-0.94-2.69-1.68l0.37-10.46
	c1.1,0.89,2.22,1.58,3.35,2.07c1.13,0.49,2.17,0.86,3.12,1.1c1.1,0.28,2.17,0.44,3.21,0.5c0.86-0.46,1.52-1.11,2-1.95
	c0.47-0.84,0.71-1.78,0.71-2.82c0-0.89-0.21-1.83-0.62-2.82c-0.41-0.99-1.05-1.94-1.9-2.82c-0.86-0.86-1.87-1.89-3.05-3.1
	c-1.18-1.21-2.31-2.58-3.4-4.11c-1.09-1.53-2-3.23-2.75-5.09c-0.75-1.87-1.12-3.9-1.12-6.1c0-2.17,0.3-4.15,0.9-5.94
	s1.44-3.33,2.52-4.61c1.09-1.29,2.39-2.28,3.9-2.98c1.51-0.7,3.17-1.06,4.98-1.06c1.47,0,3.06,0.22,4.77,0.67
	c1.71,0.44,3.53,1.14,5.46,2.09L125.87,36c-0.8-0.7-1.64-1.28-2.52-1.72c-0.89-0.44-1.71-0.79-2.48-1.03
	c-0.89-0.28-1.76-0.46-2.62-0.55c-1.16,0.21-2.16,0.82-2.98,1.81c-0.83,0.99-1.24,2.27-1.24,3.83c0,1.47,0.3,2.75,0.9,3.83
	c0.6,1.09,1.35,2.11,2.25,3.08c0.9,0.96,1.89,1.93,2.96,2.89c1.07,0.96,2.07,2.06,3.01,3.28c0.93,1.22,1.73,2.63,2.39,4.22
	C126.18,57.23,126.54,59.15,126.6,61.38z M156.61,73.86c-2.85,0.98-5.44,1.62-7.78,1.93c-2.34,0.31-4.26,0.46-5.76,0.46
	c-1.87,0-3.5-0.37-4.91-1.1c-1.41-0.73-2.62-1.71-3.65-2.94c-1.03-1.22-1.87-2.64-2.55-4.25c-0.67-1.61-1.21-3.3-1.61-5.07
	c-0.4-1.77-0.68-3.57-0.85-5.39c-0.17-1.82-0.25-3.54-0.25-5.16c0-4.04,0.32-7.76,0.96-11.18c0.64-3.41,1.58-6.36,2.8-8.84
	c1.22-2.48,2.74-4.41,4.54-5.81c1.81-1.39,3.86-2.09,6.15-2.09c1.9,0,3.63,0.47,5.19,1.42c1.56,0.95,2.89,2.4,3.99,4.36
	c1.1,1.96,1.95,4.44,2.55,7.46c0.6,3.01,0.9,6.59,0.9,10.72c0,1.16-0.02,2.34-0.07,3.53s-0.13,2.43-0.25,3.72l-16.25,2.16
	c0.12,1.13,0.31,2.2,0.57,3.21c0.26,1.01,0.61,1.9,1.06,2.69c0.44,0.78,0.97,1.4,1.58,1.86c0.61,0.46,1.36,0.69,2.25,0.69
	c1.65,0,3.3-0.1,4.96-0.3c1.65-0.2,3.38-0.44,5.19-0.71L156.61,73.86z M139.49,50l7.62-1.42v-1.74c0-2.6-0.2-4.61-0.6-6.04
	c-0.4-1.42-0.83-2.47-1.29-3.14c-0.55-0.8-1.18-1.25-1.88-1.38c-0.89,0.09-1.59,0.5-2.11,1.24c-0.52,0.73-0.91,1.68-1.17,2.82
	c-0.26,1.15-0.42,2.44-0.48,3.88c-0.06,1.44-0.09,2.89-0.09,4.36V50z M189.05,9.7l-1.15,65.96h-8.81v-4.68
	c-0.89,1.32-1.74,2.33-2.57,3.05c-0.83,0.72-1.56,1.25-2.2,1.58c-0.77,0.4-1.47,0.64-2.11,0.73c-1.56,0-3.11-0.47-4.63-1.4
	c-1.53-0.93-2.9-2.49-4.11-4.66c-1.21-2.17-2.2-5.03-2.96-8.56c-0.77-3.53-1.15-7.92-1.15-13.15c0-4.01,0.33-7.53,0.99-10.58
	c0.66-3.04,1.54-5.59,2.64-7.64c1.1-2.05,2.37-3.6,3.81-4.64c1.44-1.04,2.94-1.56,4.5-1.56c0.83,0.06,1.65,0.28,2.48,0.64
	c0.7,0.34,1.48,0.84,2.34,1.51c0.86,0.67,1.67,1.62,2.43,2.85l-0.6-19L189.05,9.7z M179.36,52.93c-0.06-2.08-0.13-4.21-0.21-6.38
	c-0.08-2.17-0.29-4.15-0.62-5.94s-0.85-3.26-1.54-4.41c-0.69-1.15-1.66-1.72-2.91-1.72c-1.16,0-2.07,0.47-2.73,1.42
	c-0.66,0.95-1.15,2.17-1.47,3.67c-0.32,1.5-0.51,3.15-0.57,4.96c-0.06,1.81-0.09,3.56-0.09,5.28c0,1.19,0.02,2.45,0.07,3.76
	c0.05,1.32,0.13,2.62,0.25,3.92c0.12,1.3,0.31,2.53,0.55,3.69c0.24,1.16,0.55,2.2,0.92,3.1c0.37,0.9,0.82,1.61,1.36,2.13
	c0.53,0.52,1.17,0.78,1.9,0.78c0.92,0,1.7-0.37,2.34-1.12c0.64-0.75,1.17-1.77,1.58-3.05c0.41-1.29,0.71-2.79,0.89-4.52
	C179.27,56.78,179.36,54.92,179.36,52.93z"/>
</svg>
